<svg width="24" height="24" viewBox="0 0 24 24" fill="none" xmlns="http://www.w3.org/2000/svg">
<g clip-path="url(#clip0_9_1010)">
<path d="M24.125 11.0634C24.125 8.45495 21.9957 6.33851 19.3715 6.33851C18.8965 6.33851 18.4414 6.41115 18.0062 6.53662C17.2422 3.24144 14.2759 0.784912 10.7282 0.784912C6.60251 0.784912 3.25746 4.10981 3.25746 8.21062C3.25746 8.47476 3.27074 8.7323 3.29732 8.98984C1.52348 9.11861 0.125 10.5879 0.125 12.3841C0.125 13.926 1.15808 15.2269 2.56984 15.6462C2.56984 15.6462 3.00168 15.7849 3.65275 15.7849H19.2652C19.2984 15.7849 19.5841 15.7783 19.5841 15.7783C22.1087 15.666 24.1217 13.6024 24.1217 11.0634H24.125Z" fill="#9A9A9A"/>
<path d="M6.72454 23.7849C6.62579 23.7849 6.52404 23.7542 6.42828 23.6961C6.14101 23.5081 6.03927 23.0912 6.20385 22.7631L9.00478 17.1313C9.16936 16.8032 9.53444 16.687 9.82172 16.875C10.109 17.0595 10.2107 17.4798 10.0461 17.8079L7.24522 23.4398C7.1345 23.6619 6.93102 23.7849 6.72454 23.7849Z" fill="#A0C1D5"/>
<path d="M10.7493 21.7849C10.6465 21.7849 10.5405 21.7561 10.4408 21.6914C10.1417 21.4936 10.0357 21.0549 10.2071 20.7096L11.9584 17.1494C12.1298 16.8042 12.51 16.6819 12.8092 16.8797C13.1083 17.0739 13.2143 17.5162 13.0429 17.8614L11.2916 21.4217C11.1763 21.6554 10.9675 21.7849 10.7493 21.7849Z" fill="#A0C1D5"/>
<path d="M12.7751 22.7849C12.668 22.7849 12.5577 22.7592 12.4539 22.7013C12.1424 22.5277 12.032 22.1323 12.2105 21.8237L14.9103 17.1107C15.0887 16.8021 15.4846 16.6928 15.7961 16.8696C16.1076 17.0432 16.218 17.4386 16.0395 17.7473L13.3397 22.4602C13.2197 22.6692 13.0023 22.7849 12.7751 22.7849Z" fill="#A0C1D5"/>
</g>
<defs>
<clipPath id="clip0_9_1010">
<rect width="24" height="24" fill="white"/>
</clipPath>
</defs>
</svg>
