<svg width="24" height="24" viewBox="0 0 24 24" fill="none" xmlns="http://www.w3.org/2000/svg">
<g clip-path="url(#clip0_19_1586)">
<path d="M24.125 11.0636C24.125 8.4552 21.9957 6.33876 19.3715 6.33876C18.8965 6.33876 18.4414 6.41139 18.0062 6.53686C17.2422 3.24168 14.2759 0.785156 10.7282 0.785156C6.60251 0.785156 3.25746 4.11005 3.25746 8.21087C3.25746 8.47501 3.27074 8.73255 3.29732 8.99009C1.52348 9.11886 0.125 10.5882 0.125 12.3843C0.125 13.9263 1.15808 15.2272 2.56984 15.6465C2.56984 15.6465 3.00168 15.7852 3.65275 15.7852H19.2652C19.2984 15.7852 19.5841 15.7786 19.5841 15.7786C22.1087 15.6663 24.1217 13.6027 24.1217 11.0636H24.125Z" fill="#E1E1E1"/>
<path d="M6.72454 23.7852C6.62579 23.7852 6.52404 23.7544 6.42828 23.6963C6.14101 23.5083 6.03927 23.0914 6.20385 22.7634L9.00478 17.1315C9.16936 16.8034 9.53444 16.6872 9.82172 16.8752C10.109 17.0597 10.2107 17.4801 10.0461 17.8082L7.24522 23.44C7.1345 23.6621 6.93102 23.7852 6.72454 23.7852Z" fill="#E1E1E1"/>
<path d="M10.7493 21.7852C10.6465 21.7852 10.5405 21.7564 10.4408 21.6917C10.1417 21.4939 10.0357 21.0551 10.2071 20.7099L11.9584 17.1496C12.1298 16.8044 12.51 16.6821 12.8092 16.8799C13.1083 17.0741 13.2143 17.5164 13.0429 17.8617L11.2916 21.4219C11.1763 21.6557 10.9675 21.7852 10.7493 21.7852Z" fill="#E1E1E1"/>
<path d="M12.7751 22.7852C12.668 22.7852 12.5577 22.7594 12.4539 22.7016C12.1424 22.528 12.032 22.1325 12.2105 21.8239L14.9103 17.111C15.0887 16.8024 15.4846 16.6931 15.7961 16.8699C16.1076 17.0435 16.218 17.4389 16.0395 17.7475L13.3397 22.4605C13.2197 22.6694 13.0023 22.7852 12.7751 22.7852Z" fill="#E1E1E1"/>
</g>
<defs>
<clipPath id="clip0_19_1586">
<rect width="24" height="24" fill="white"/>
</clipPath>
</defs>
</svg>
