<svg width="24" height="24" viewBox="0 0 24 24" fill="none" xmlns="http://www.w3.org/2000/svg">
<path d="M23.625 14.4985C23.625 11.8913 21.5844 9.77576 19.0696 9.77576C18.6143 9.77576 18.1782 9.84837 17.7612 9.97378C17.029 6.68006 14.1862 4.22461 10.7864 4.22461C6.83261 4.22461 3.62694 7.54804 3.62694 11.6471C3.62694 11.9111 3.63967 12.1685 3.66514 12.4259C1.96521 12.5546 0.625 14.0233 0.625 15.8187C0.625 17.3599 1.61503 18.6603 2.96798 19.0794C2.96798 19.0794 3.38182 19.218 4.00576 19.218H18.9677C18.9995 19.218 19.0314 19.2246 19.0664 19.2246C19.1014 19.2246 19.1332 19.2213 19.1651 19.218H19.2733V19.2114C21.6927 19.0992 23.6218 17.0365 23.6218 14.4985H23.625Z" fill="#E1E1E1"/>
</svg>
