<svg width="24" height="24" viewBox="0 0 24 24" fill="none" xmlns="http://www.w3.org/2000/svg">
<path d="M23.625 14.499C23.625 11.8918 21.5844 9.77625 19.0696 9.77625C18.6143 9.77625 18.1782 9.84886 17.7612 9.97427C17.029 6.68054 14.1862 4.2251 10.7864 4.2251C6.83261 4.2251 3.62694 7.54853 3.62694 11.6475C3.62694 11.9116 3.63967 12.169 3.66514 12.4264C1.96521 12.5551 0.625 14.0238 0.625 15.8192C0.625 17.3604 1.61503 18.6607 2.96798 19.0799C2.96798 19.0799 3.38182 19.2185 4.00576 19.2185H18.9677C18.9995 19.2185 19.0314 19.2251 19.0664 19.2251C19.1014 19.2251 19.1332 19.2218 19.1651 19.2185H19.2733V19.2119C21.6927 19.0997 23.6218 17.037 23.6218 14.499H23.625Z" fill="#A0C1D5"/>
</svg>
