<svg width="16" height="16" viewBox="0 0 16 16" fill="none" xmlns="http://www.w3.org/2000/svg">
<g clip-path="url(#clip0_20_3725)">
<path d="M5.33301 5.33301V3.46634C5.33301 2.7196 5.33301 2.34624 5.47833 2.06102C5.60616 1.81014 5.81014 1.60616 6.06102 1.47833C6.34624 1.33301 6.7196 1.33301 7.46634 1.33301H12.533C13.2797 1.33301 13.6531 1.33301 13.9383 1.47833C14.1892 1.60616 14.3932 1.81014 14.521 2.06102C14.6663 2.34624 14.6663 2.7196 14.6663 3.46634V8.53301C14.6663 9.27974 14.6663 9.65311 14.521 9.93833C14.3932 10.1892 14.1892 10.3932 13.9383 10.521C13.6531 10.6663 13.2797 10.6663 12.533 10.6663H10.6663M3.46634 14.6663H8.53301C9.27974 14.6663 9.65311 14.6663 9.93833 14.521C10.1892 14.3932 10.3932 14.1892 10.521 13.9383C10.6663 13.6531 10.6663 13.2797 10.6663 12.533V7.46634C10.6663 6.7196 10.6663 6.34624 10.521 6.06102C10.3932 5.81014 10.1892 5.60616 9.93833 5.47833C9.65311 5.33301 9.27974 5.33301 8.53301 5.33301H3.46634C2.7196 5.33301 2.34624 5.33301 2.06102 5.47833C1.81014 5.60616 1.60616 5.81014 1.47833 6.06102C1.33301 6.34624 1.33301 6.7196 1.33301 7.46634V12.533C1.33301 13.2797 1.33301 13.6531 1.47833 13.9383C1.60616 14.1892 1.81014 14.3932 2.06102 14.521C2.34624 14.6663 2.7196 14.6663 3.46634 14.6663Z" stroke="#5B5B5B" stroke-linecap="round" stroke-linejoin="round"/>
</g>
<defs>
<clipPath id="clip0_20_3725">
<rect width="16" height="16" fill="white"/>
</clipPath>
</defs>
</svg>
