<svg width="320" height="54" viewBox="0 0 320 54" fill="none" xmlns="http://www.w3.org/2000/svg">
<path d="M304.763 0H14.5125C6.49747 0 0 6.22588 0 13.9059V39.4C0 47.08 6.49747 53.3059 14.5125 53.3059H304.763C312.778 53.3059 319.275 47.08 319.275 39.4V13.9059C319.275 6.22588 312.778 0 304.763 0Z" fill="#FFFEF7"/>
<path d="M304.763 0.869141H14.5127C6.9986 0.869141 0.907227 6.7059 0.907227 13.9059V39.4C0.907227 46.6 6.9986 52.4368 14.5127 52.4368H304.763C312.277 52.4368 318.368 46.6 318.368 39.4V13.9059C318.368 6.7059 312.277 0.869141 304.763 0.869141Z" stroke="#E8E5DA" stroke-width="1.5"/>
<path d="M113.247 26.8847C113.247 26.143 113.174 25.4361 113.053 24.7524H102.798V28.7851H108.651C108.397 30.0714 107.623 31.1607 106.462 31.8908V34.475H110.006C112.074 32.644 113.247 29.9556 113.247 26.8847Z" fill="#4285F4"/>
<path d="M102.798 37.0822C105.736 37.0822 108.204 36.1552 110.005 34.556L106.462 31.9718C105.494 32.5976 104.261 32.9684 102.798 32.9684C99.9677 32.9684 97.5731 31.1375 96.7144 28.6692H93.0742V31.3692C93.9837 33.091 95.3744 34.5368 97.0913 35.5456C98.8082 36.5543 100.784 37.0863 102.798 37.0822Z" fill="#34A853"/>
<path d="M96.7143 28.6691C96.4966 28.0433 96.3757 27.3828 96.3757 26.6991C96.3757 26.0154 96.4966 25.3317 96.7143 24.7175V22.0059H93.0741C92.3093 23.4617 91.9116 25.0692 91.9131 26.6991C91.9131 28.3794 92.3364 29.967 93.0741 31.3807L96.7143 28.6691Z" fill="#FBBC05"/>
<path d="M102.798 20.372C104.394 20.372 105.821 20.8934 106.946 21.9364L110.066 18.9466C108.191 17.2547 105.736 16.2234 102.798 16.2234C100.776 16.2258 98.7953 16.7682 97.0777 17.7896C95.3601 18.8111 93.9737 20.2712 93.0742 22.0059L96.7144 24.7176C97.5731 22.2029 99.9677 20.372 102.798 20.372Z" fill="#EA4335"/>
<path d="M128.62 30.3914C127.706 30.3914 126.903 30.1814 126.212 29.7614C125.522 29.3321 124.985 28.7394 124.602 27.9834C124.22 27.2274 124.028 26.3454 124.028 25.3374C124.028 24.3387 124.22 23.4567 124.602 22.6914C124.994 21.9261 125.545 21.3287 126.254 20.8994C126.973 20.4701 127.818 20.2554 128.788 20.2554C129.89 20.2554 130.809 20.5214 131.546 21.0534C132.284 21.5761 132.755 22.3087 132.96 23.2514H131.602C131.472 22.6634 131.164 22.1967 130.678 21.8514C130.193 21.5061 129.563 21.3334 128.788 21.3334C128.07 21.3334 127.44 21.4967 126.898 21.8234C126.366 22.1407 125.956 22.5981 125.666 23.1954C125.377 23.7927 125.232 24.5067 125.232 25.3374C125.232 26.1681 125.377 26.8867 125.666 27.4934C125.956 28.0907 126.357 28.5481 126.87 28.8654C127.393 29.1827 127.99 29.3414 128.662 29.3414C129.708 29.3414 130.496 29.0334 131.028 28.4174C131.56 27.8014 131.864 26.9661 131.938 25.9114H129.11V24.9874H133.142V30.2234H132.064L131.966 28.6134C131.733 28.9961 131.462 29.3227 131.154 29.5934C130.856 29.8547 130.501 30.0554 130.09 30.1954C129.68 30.3261 129.19 30.3914 128.62 30.3914ZM138.096 30.3914C137.442 30.3914 136.854 30.2421 136.332 29.9434C135.809 29.6354 135.398 29.2061 135.1 28.6554C134.801 28.0954 134.652 27.4467 134.652 26.7094C134.652 25.9534 134.801 25.3001 135.1 24.7494C135.408 24.1894 135.823 23.7601 136.346 23.4614C136.878 23.1534 137.47 22.9994 138.124 22.9994C138.796 22.9994 139.388 23.1534 139.902 23.4614C140.424 23.7601 140.835 24.1894 141.134 24.7494C141.442 25.3001 141.596 25.9487 141.596 26.6954C141.596 27.4421 141.442 28.0954 141.134 28.6554C140.826 29.2061 140.41 29.6354 139.888 29.9434C139.365 30.2421 138.768 30.3914 138.096 30.3914ZM138.11 29.3834C138.511 29.3834 138.884 29.2854 139.23 29.0894C139.575 28.8841 139.855 28.5807 140.07 28.1794C140.284 27.7781 140.392 27.2834 140.392 26.6954C140.392 26.0981 140.284 25.6034 140.07 25.2114C139.864 24.8101 139.589 24.5114 139.244 24.3154C138.908 24.1101 138.534 24.0074 138.124 24.0074C137.732 24.0074 137.358 24.1101 137.004 24.3154C136.658 24.5114 136.378 24.8101 136.164 25.2114C135.958 25.6034 135.856 26.0981 135.856 26.6954C135.856 27.2834 135.958 27.7781 136.164 28.1794C136.378 28.5807 136.654 28.8841 136.99 29.0894C137.335 29.2854 137.708 29.3834 138.11 29.3834ZM146.395 30.3914C145.741 30.3914 145.153 30.2421 144.631 29.9434C144.108 29.6354 143.697 29.2061 143.399 28.6554C143.1 28.0954 142.951 27.4467 142.951 26.7094C142.951 25.9534 143.1 25.3001 143.399 24.7494C143.707 24.1894 144.122 23.7601 144.645 23.4614C145.177 23.1534 145.769 22.9994 146.423 22.9994C147.095 22.9994 147.687 23.1534 148.201 23.4614C148.723 23.7601 149.134 24.1894 149.433 24.7494C149.741 25.3001 149.895 25.9487 149.895 26.6954C149.895 27.4421 149.741 28.0954 149.433 28.6554C149.125 29.2061 148.709 29.6354 148.187 29.9434C147.664 30.2421 147.067 30.3914 146.395 30.3914ZM146.409 29.3834C146.81 29.3834 147.183 29.2854 147.529 29.0894C147.874 28.8841 148.154 28.5807 148.369 28.1794C148.583 27.7781 148.691 27.2834 148.691 26.6954C148.691 26.0981 148.583 25.6034 148.369 25.2114C148.163 24.8101 147.888 24.5114 147.543 24.3154C147.207 24.1101 146.833 24.0074 146.423 24.0074C146.031 24.0074 145.657 24.1101 145.303 24.3154C144.957 24.5114 144.677 24.8101 144.463 25.2114C144.257 25.6034 144.155 26.0981 144.155 26.6954C144.155 27.2834 144.257 27.7781 144.463 28.1794C144.677 28.5807 144.953 28.8841 145.289 29.0894C145.634 29.2854 146.007 29.3834 146.409 29.3834ZM154.029 33.4714C153.394 33.4714 152.829 33.3874 152.335 33.2194C151.849 33.0607 151.471 32.8134 151.201 32.4774C150.93 32.1414 150.795 31.7261 150.795 31.2314C150.795 31.0167 150.837 30.7881 150.921 30.5454C151.014 30.3027 151.168 30.0647 151.383 29.8314C151.607 29.5981 151.919 29.3881 152.321 29.2014L153.133 29.6774C152.638 29.8827 152.316 30.1161 152.167 30.3774C152.017 30.6481 151.943 30.8954 151.943 31.1194C151.943 31.4274 152.031 31.6841 152.209 31.8894C152.386 32.0947 152.633 32.2487 152.951 32.3514C153.268 32.4541 153.627 32.5054 154.029 32.5054C154.43 32.5054 154.775 32.4494 155.065 32.3374C155.354 32.2254 155.578 32.0667 155.737 31.8614C155.895 31.6561 155.975 31.4134 155.975 31.1334C155.975 30.8067 155.853 30.5314 155.611 30.3074C155.368 30.0927 154.906 29.9667 154.225 29.9294C153.674 29.8921 153.212 29.8407 152.839 29.7754C152.465 29.7101 152.157 29.6354 151.915 29.5514C151.672 29.4581 151.467 29.3554 151.299 29.2434C151.14 29.1314 150.995 29.0147 150.865 28.8934V28.5714L152.223 27.2274L153.245 27.5914L151.845 28.8514L152.027 28.3614C152.129 28.4361 152.227 28.5061 152.321 28.5714C152.414 28.6367 152.54 28.6927 152.699 28.7394C152.857 28.7861 153.077 28.8281 153.357 28.8654C153.646 28.9027 154.024 28.9401 154.491 28.9774C155.135 29.0241 155.648 29.1361 156.031 29.3134C156.423 29.4907 156.703 29.7287 156.871 30.0274C157.048 30.3261 157.137 30.6807 157.137 31.0914C157.137 31.4927 157.025 31.8707 156.801 32.2254C156.586 32.5894 156.25 32.8881 155.793 33.1214C155.335 33.3547 154.747 33.4714 154.029 33.4714ZM154.015 28.0114C153.427 28.0114 152.923 27.8994 152.503 27.6754C152.092 27.4514 151.779 27.1527 151.565 26.7794C151.35 26.3967 151.243 25.9721 151.243 25.5054C151.243 25.0387 151.35 24.6187 151.565 24.2454C151.789 23.8721 152.106 23.5734 152.517 23.3494C152.927 23.1161 153.427 22.9994 154.015 22.9994C154.603 22.9994 155.102 23.1161 155.513 23.3494C155.923 23.5734 156.236 23.8721 156.451 24.2454C156.665 24.6187 156.773 25.0387 156.773 25.5054C156.773 25.9721 156.665 26.3967 156.451 26.7794C156.236 27.1527 155.923 27.4514 155.513 27.6754C155.102 27.8994 154.603 28.0114 154.015 28.0114ZM154.015 27.0454C154.519 27.0454 154.915 26.9147 155.205 26.6534C155.494 26.3921 155.639 26.0094 155.639 25.5054C155.639 25.0107 155.494 24.6327 155.205 24.3714C154.915 24.1101 154.519 23.9794 154.015 23.9794C153.52 23.9794 153.119 24.1101 152.811 24.3714C152.512 24.6327 152.363 25.0107 152.363 25.5054C152.363 26.0094 152.512 26.3921 152.811 26.6534C153.109 26.9147 153.511 27.0454 154.015 27.0454ZM155.163 24.1614L154.813 23.1674H157.697V24.0494L155.163 24.1614ZM159.049 30.2234V20.1434H160.225V30.2234H159.049ZM165.261 30.3914C164.598 30.3914 164.01 30.2374 163.497 29.9294C162.993 29.6214 162.596 29.1921 162.307 28.6414C162.017 28.0814 161.873 27.4327 161.873 26.6954C161.873 25.9487 162.013 25.3001 162.293 24.7494C162.582 24.1987 162.983 23.7694 163.497 23.4614C164.019 23.1534 164.617 22.9994 165.289 22.9994C165.979 22.9994 166.563 23.1534 167.039 23.4614C167.524 23.7694 167.893 24.1754 168.145 24.6794C168.406 25.1741 168.537 25.7201 168.537 26.3174C168.537 26.4107 168.537 26.5087 168.537 26.6114C168.537 26.7141 168.532 26.8307 168.523 26.9614H162.755V26.0514H167.389C167.361 25.4074 167.146 24.9034 166.745 24.5394C166.353 24.1754 165.858 23.9934 165.261 23.9934C164.859 23.9934 164.486 24.0867 164.141 24.2734C163.805 24.4507 163.534 24.7167 163.329 25.0714C163.123 25.4167 163.021 25.8507 163.021 26.3734V26.7654C163.021 27.3441 163.123 27.8294 163.329 28.2214C163.543 28.6134 163.819 28.9074 164.155 29.1034C164.5 29.2994 164.869 29.3974 165.261 29.3974C165.755 29.3974 166.161 29.2901 166.479 29.0754C166.805 28.8514 167.039 28.5527 167.179 28.1794H168.341C168.229 28.5994 168.033 28.9774 167.753 29.3134C167.473 29.6494 167.123 29.9154 166.703 30.1114C166.292 30.2981 165.811 30.3914 165.261 30.3914ZM169.844 28.7814H181.324V29.7474H169.844V28.7814ZM174.982 26.0794H176.13V29.1874H174.982V26.0794ZM171.244 19.5834H179.896V23.4194H172.42V25.9534H171.272V22.4954H178.748V20.5354H171.244V19.5834ZM171.272 25.4634H180.19V26.4154H171.272V25.4634ZM189.773 19.7374H190.739V22.0054C190.739 22.7334 190.646 23.4427 190.459 24.1334C190.282 24.8147 190.025 25.4541 189.689 26.0514C189.363 26.6394 188.975 27.1621 188.527 27.6194C188.089 28.0674 187.608 28.4221 187.085 28.6834L186.371 27.7174C186.847 27.5027 187.291 27.1947 187.701 26.7934C188.112 26.3921 188.471 25.9394 188.779 25.4354C189.087 24.9221 189.33 24.3714 189.507 23.7834C189.685 23.1954 189.773 22.6027 189.773 22.0054V19.7374ZM189.969 19.7374H190.935V22.0054C190.935 22.5841 191.019 23.1534 191.187 23.7134C191.365 24.2734 191.607 24.8054 191.915 25.3094C192.233 25.8041 192.592 26.2427 192.993 26.6254C193.404 26.9987 193.843 27.2927 194.309 27.5074L193.609 28.4314C193.096 28.1887 192.62 27.8481 192.181 27.4094C191.743 26.9707 191.355 26.4667 191.019 25.8974C190.693 25.3281 190.436 24.7121 190.249 24.0494C190.063 23.3867 189.969 22.7054 189.969 22.0054V19.7374ZM195.639 18.6454H196.801V31.3294H195.639V18.6454ZM202.442 19.9474H203.394V20.9694C203.394 21.7441 203.245 22.4674 202.946 23.1394C202.657 23.8021 202.251 24.3807 201.728 24.8754C201.205 25.3607 200.589 25.7294 199.88 25.9814L199.264 25.0854C199.899 24.8614 200.454 24.5394 200.93 24.1194C201.406 23.6994 201.775 23.2234 202.036 22.6914C202.307 22.1501 202.442 21.5761 202.442 20.9694V19.9474ZM202.652 19.9474H203.604V20.9694C203.604 21.5201 203.73 22.0521 203.982 22.5654C204.234 23.0787 204.589 23.5314 205.046 23.9234C205.513 24.3154 206.054 24.6187 206.67 24.8334L206.082 25.7434C205.391 25.4914 204.785 25.1321 204.262 24.6654C203.749 24.1894 203.352 23.6341 203.072 22.9994C202.792 22.3647 202.652 21.6881 202.652 20.9694V19.9474ZM199.614 19.5274H206.39V20.4794H199.614V19.5274ZM207.986 18.6454H209.148V26.2754H207.986V18.6454ZM208.826 21.9774H211.01V22.9574H208.826V21.9774ZM200.916 26.9474H209.148V31.3154H207.986V27.8994H200.916V26.9474ZM220.781 18.6454H221.929V31.3154H220.781V18.6454ZM221.663 23.8534H224.001V24.8334H221.663V23.8534ZM212.129 20.6754H219.591V21.6274H212.129V20.6754ZM215.923 22.6634C216.52 22.6634 217.048 22.7894 217.505 23.0414C217.972 23.2934 218.336 23.6387 218.597 24.0774C218.868 24.5067 219.003 25.0061 219.003 25.5754C219.003 26.1447 218.868 26.6487 218.597 27.0874C218.336 27.5261 217.972 27.8714 217.505 28.1234C217.048 28.3661 216.52 28.4874 215.923 28.4874C215.326 28.4874 214.794 28.3661 214.327 28.1234C213.87 27.8714 213.506 27.5261 213.235 27.0874C212.964 26.6487 212.829 26.1447 212.829 25.5754C212.829 25.0061 212.964 24.5067 213.235 24.0774C213.506 23.6387 213.87 23.2934 214.327 23.0414C214.794 22.7894 215.326 22.6634 215.923 22.6634ZM215.923 23.6294C215.54 23.6294 215.2 23.7134 214.901 23.8814C214.602 24.0494 214.364 24.2781 214.187 24.5674C214.019 24.8567 213.935 25.1927 213.935 25.5754C213.935 25.9581 214.019 26.2987 214.187 26.5974C214.364 26.8867 214.602 27.1154 214.901 27.2834C215.2 27.4421 215.54 27.5214 215.923 27.5214C216.296 27.5214 216.632 27.4421 216.931 27.2834C217.23 27.1154 217.463 26.8867 217.631 26.5974C217.808 26.2987 217.897 25.9581 217.897 25.5754C217.897 25.1927 217.808 24.8567 217.631 24.5674C217.463 24.2781 217.23 24.0494 216.931 23.8814C216.632 23.7134 216.296 23.6294 215.923 23.6294ZM215.321 18.7994H216.483V21.0954H215.321V18.7994ZM234.304 18.6454H235.466V31.3154H234.304V18.6454ZM230.594 20.0174H231.742C231.742 20.9321 231.63 21.8141 231.406 22.6634C231.191 23.5127 230.851 24.3201 230.384 25.0854C229.917 25.8414 229.311 26.5461 228.564 27.1994C227.817 27.8527 226.912 28.4361 225.848 28.9494L225.232 28.0114C226.455 27.4234 227.463 26.7374 228.256 25.9534C229.049 25.1694 229.637 24.2967 230.02 23.3354C230.403 22.3647 230.594 21.3194 230.594 20.1994V20.0174ZM225.82 20.0174H231.084V20.9554H225.82V20.0174Z" fill="#5F5E5A"/>
</svg>
