<svg width="32" height="32" viewBox="0 0 32 32" fill="none" xmlns="http://www.w3.org/2000/svg">
<circle cx="16" cy="16" r="15.5" fill="white" stroke="#E1E1E1"/>
<mask id="mask0_18_2460" style="mask-type:alpha" maskUnits="userSpaceOnUse" x="0" y="0" width="32" height="32">
<circle cx="16" cy="16" r="16" fill="white"/>
</mask>
<g mask="url(#mask0_18_2460)">
<path d="M16.0086 20.7854C19.5379 20.7854 22.3989 17.9233 22.3989 14.3927C22.3989 10.8621 19.5379 8 16.0086 8C12.4793 8 9.61826 10.8621 9.61826 14.3927C9.61826 17.9233 12.4793 20.7854 16.0086 20.7854Z" fill="#C4C4C4"/>
<path d="M4.5 32C4.92026 26.8398 10.7409 20.7824 16.0086 20.7824C21.2763 20.7824 27.4991 26.9233 28 32" fill="#C4C4C4"/>
<path d="M4.5 32C4.92026 26.8398 10.7409 20.7824 16.0086 20.7824C21.2763 20.7824 27.4991 26.9233 28 32M22.3989 14.3927C22.3989 17.9233 19.5379 20.7854 16.0086 20.7854C12.4793 20.7854 9.61826 17.9233 9.61826 14.3927C9.61826 10.8621 12.4793 8 16.0086 8C19.5379 8 22.3989 10.8621 22.3989 14.3927Z" stroke="#C4C4C4" stroke-linecap="round" stroke-linejoin="round"/>
</g>
</svg>
