<svg width="320" height="54" viewBox="0 0 320 54" fill="none" xmlns="http://www.w3.org/2000/svg">
<path d="M304.763 0H14.5125C6.49747 0 0 6.22588 0 13.9059V39.4C0 47.08 6.49747 53.3059 14.5125 53.3059H304.763C312.778 53.3059 319.275 47.08 319.275 39.4V13.9059C319.275 6.22588 312.778 0 304.763 0Z" fill="#FEE500"/>
<path d="M107.635 20.3826C102.29 20.3826 97.96 23.6157 97.96 27.5789C97.96 30.0935 99.7136 32.3069 102.35 33.5816C102.156 34.2537 101.649 36.0151 101.552 36.3975C101.431 36.861 101.733 36.861 101.927 36.7336C102.084 36.6409 104.358 35.1576 105.337 34.5202C106.063 34.6245 106.813 34.6709 107.635 34.6709C112.98 34.6709 117.31 31.4377 117.31 27.4746C117.31 23.6157 112.98 20.3826 107.635 20.3826Z" fill="#3C1E1E"/>
<path d="M133.06 22.9616H134.194C134.194 23.8763 134.106 24.7723 133.928 25.6496C133.751 26.5176 133.448 27.3483 133.018 28.1416C132.589 28.9256 132.001 29.663 131.254 30.3536C130.508 31.0443 129.57 31.6696 128.44 32.2296L127.796 31.3336C128.804 30.839 129.644 30.293 130.316 29.6956C130.988 29.0983 131.525 28.4543 131.926 27.7636C132.328 27.073 132.617 26.3356 132.794 25.5516C132.972 24.7676 133.06 23.9463 133.06 23.0876V22.9616ZM128.496 22.9616H133.76V23.9136H128.496V22.9616ZM132.892 26.0976V27.0076L128.034 27.4696L127.852 26.4476L132.892 26.0976ZM136.252 21.6456H137.414V34.3016H136.252V21.6456ZM137.106 26.7836H139.43V27.7496H137.106V26.7836ZM145.939 22.9616H147.073C147.073 23.8763 146.985 24.7723 146.807 25.6496C146.63 26.5176 146.327 27.3483 145.897 28.1416C145.468 28.9256 144.88 29.663 144.133 30.3536C143.387 31.0443 142.449 31.6696 141.319 32.2296L140.675 31.3336C141.683 30.839 142.523 30.293 143.195 29.6956C143.867 29.0983 144.404 28.4543 144.805 27.7636C145.207 27.073 145.496 26.3356 145.673 25.5516C145.851 24.7676 145.939 23.9463 145.939 23.0876V22.9616ZM141.375 22.9616H146.639V23.9136H141.375V22.9616ZM145.771 26.0976V27.0076L140.913 27.4696L140.731 26.4476L145.771 26.0976ZM149.131 21.6456H150.293V34.3016H149.131V21.6456ZM149.985 26.7836H152.309V27.7496H149.985V26.7836ZM158.58 28.7996H159.728V31.9496H158.58V28.7996ZM159.154 22.4716C160.05 22.4716 160.844 22.6116 161.534 22.8916C162.225 23.1623 162.766 23.545 163.158 24.0396C163.56 24.5343 163.76 25.1176 163.76 25.7896C163.76 26.4616 163.56 27.0496 163.158 27.5536C162.766 28.0483 162.225 28.431 161.534 28.7016C160.844 28.9723 160.05 29.1076 159.154 29.1076C158.268 29.1076 157.474 28.9723 156.774 28.7016C156.084 28.431 155.542 28.0483 155.15 27.5536C154.758 27.0496 154.562 26.4616 154.562 25.7896C154.562 25.1176 154.758 24.5343 155.15 24.0396C155.542 23.545 156.084 23.1623 156.774 22.8916C157.474 22.6116 158.268 22.4716 159.154 22.4716ZM159.154 23.4096C158.482 23.4096 157.885 23.5076 157.362 23.7036C156.84 23.8996 156.429 24.1796 156.13 24.5436C155.832 24.8983 155.682 25.3136 155.682 25.7896C155.682 26.2656 155.832 26.6856 156.13 27.0496C156.429 27.4136 156.84 27.6936 157.362 27.8896C157.885 28.0856 158.482 28.1836 159.154 28.1836C159.826 28.1836 160.424 28.0856 160.946 27.8896C161.469 27.6936 161.88 27.4136 162.178 27.0496C162.486 26.6856 162.64 26.2656 162.64 25.7896C162.64 25.3136 162.486 24.8983 162.178 24.5436C161.88 24.1796 161.469 23.8996 160.946 23.7036C160.424 23.5076 159.826 23.4096 159.154 23.4096ZM153.442 31.7256H164.922V32.6916H153.442V31.7256ZM166.321 31.7816H177.801V32.7476H166.321V31.7816ZM171.459 29.0796H172.607V32.1876H171.459V29.0796ZM167.721 22.5836H176.373V26.4196H168.897V28.9536H167.749V25.4956H175.225V23.5356H167.721V22.5836ZM167.749 28.4636H176.667V29.4156H167.749V28.4636ZM186.251 22.7376H187.217V25.0056C187.217 25.7336 187.123 26.443 186.937 27.1336C186.759 27.815 186.503 28.4543 186.167 29.0516C185.84 29.6396 185.453 30.1623 185.005 30.6196C184.566 31.0676 184.085 31.4223 183.563 31.6836L182.849 30.7176C183.325 30.503 183.768 30.195 184.179 29.7936C184.589 29.3923 184.949 28.9396 185.257 28.4356C185.565 27.9223 185.807 27.3716 185.985 26.7836C186.162 26.1956 186.251 25.603 186.251 25.0056V22.7376ZM186.447 22.7376H187.413V25.0056C187.413 25.5843 187.497 26.1536 187.665 26.7136C187.842 27.2736 188.085 27.8056 188.393 28.3096C188.71 28.8043 189.069 29.243 189.471 29.6256C189.881 29.999 190.32 30.293 190.787 30.5076L190.087 31.4316C189.573 31.189 189.097 30.8483 188.659 30.4096C188.22 29.971 187.833 29.467 187.497 28.8976C187.17 28.3283 186.913 27.7123 186.727 27.0496C186.54 26.387 186.447 25.7056 186.447 25.0056V22.7376ZM192.117 21.6456H193.279V34.3296H192.117V21.6456ZM198.92 22.9476H199.872V23.9696C199.872 24.7443 199.722 25.4676 199.424 26.1396C199.134 26.8023 198.728 27.381 198.206 27.8756C197.683 28.361 197.067 28.7296 196.358 28.9816L195.742 28.0856C196.376 27.8616 196.932 27.5396 197.408 27.1196C197.884 26.6996 198.252 26.2236 198.514 25.6916C198.784 25.1503 198.92 24.5763 198.92 23.9696V22.9476ZM199.13 22.9476H200.082V23.9696C200.082 24.5203 200.208 25.0523 200.46 25.5656C200.712 26.079 201.066 26.5316 201.524 26.9236C201.99 27.3156 202.532 27.619 203.148 27.8336L202.56 28.7436C201.869 28.4916 201.262 28.1323 200.74 27.6656C200.226 27.1896 199.83 26.6343 199.55 25.9996C199.27 25.365 199.13 24.6883 199.13 23.9696V22.9476ZM196.092 22.5276H202.868V23.4796H196.092V22.5276ZM204.464 21.6456H205.626V29.2756H204.464V21.6456ZM205.304 24.9776H207.488V25.9576H205.304V24.9776ZM197.394 29.9476H205.626V34.3156H204.464V30.8996H197.394V29.9476ZM217.259 21.6456H218.407V34.3156H217.259V21.6456ZM218.141 26.8536H220.479V27.8336H218.141V26.8536ZM208.607 23.6756H216.069V24.6276H208.607V23.6756ZM212.401 25.6636C212.998 25.6636 213.525 25.7896 213.983 26.0416C214.449 26.2936 214.813 26.639 215.075 27.0776C215.345 27.507 215.481 28.0063 215.481 28.5756C215.481 29.145 215.345 29.649 215.075 30.0876C214.813 30.5263 214.449 30.8716 213.983 31.1236C213.525 31.3663 212.998 31.4876 212.401 31.4876C211.803 31.4876 211.271 31.3663 210.805 31.1236C210.347 30.8716 209.983 30.5263 209.713 30.0876C209.442 29.649 209.307 29.145 209.307 28.5756C209.307 28.0063 209.442 27.507 209.713 27.0776C209.983 26.639 210.347 26.2936 210.805 26.0416C211.271 25.7896 211.803 25.6636 212.401 25.6636ZM212.401 26.6296C212.018 26.6296 211.677 26.7136 211.379 26.8816C211.08 27.0496 210.842 27.2783 210.665 27.5676C210.497 27.857 210.413 28.193 210.413 28.5756C210.413 28.9583 210.497 29.299 210.665 29.5976C210.842 29.887 211.08 30.1156 211.379 30.2836C211.677 30.4423 212.018 30.5216 212.401 30.5216C212.774 30.5216 213.11 30.4423 213.409 30.2836C213.707 30.1156 213.941 29.887 214.109 29.5976C214.286 29.299 214.375 28.9583 214.375 28.5756C214.375 28.193 214.286 27.857 214.109 27.5676C213.941 27.2783 213.707 27.0496 213.409 26.8816C213.11 26.7136 212.774 26.6296 212.401 26.6296ZM211.799 21.7996H212.961V24.0956H211.799V21.7996ZM230.781 21.6456H231.943V34.3156H230.781V21.6456ZM227.071 23.0176H228.219C228.219 23.9323 228.107 24.8143 227.883 25.6636C227.669 26.513 227.328 27.3203 226.861 28.0856C226.395 28.8416 225.788 29.5463 225.041 30.1996C224.295 30.853 223.389 31.4363 222.325 31.9496L221.709 31.0116C222.932 30.4236 223.94 29.7376 224.733 28.9536C225.527 28.1696 226.115 27.297 226.497 26.3356C226.88 25.365 227.071 24.3196 227.071 23.1996V23.0176ZM222.297 23.0176H227.561V23.9556H222.297V23.0176Z" fill="#3C1E1E"/>
</svg>
