<svg width="14" height="14" viewBox="0 0 14 14" fill="none" xmlns="http://www.w3.org/2000/svg">
<path d="M8.16634 6.41699H4.66634M5.83301 8.75033H4.66634M9.33301 4.08366H4.66634M11.6663 3.96699V10.0337C11.6663 11.0138 11.6663 11.5038 11.4756 11.8781C11.3078 12.2074 11.0401 12.4751 10.7108 12.6429C10.3365 12.8337 9.84643 12.8337 8.86634 12.8337H5.13301C4.15292 12.8337 3.66287 12.8337 3.28852 12.6429C2.95924 12.4751 2.69152 12.2074 2.52375 11.8781C2.33301 11.5038 2.33301 11.0138 2.33301 10.0337V3.96699C2.33301 2.9869 2.33301 2.49685 2.52375 2.12251C2.69152 1.79323 2.95924 1.52551 3.28852 1.35773C3.66287 1.16699 4.15292 1.16699 5.13301 1.16699H8.86634C9.84643 1.16699 10.3365 1.16699 10.7108 1.35773C11.0401 1.52551 11.3078 1.79323 11.4756 2.12251C11.6663 2.49685 11.6663 2.9869 11.6663 3.96699Z" stroke="#5B5B5B" stroke-linecap="round" stroke-linejoin="round"/>
</svg>
