<svg xmlns="http://www.w3.org/2000/svg" xml:space="preserve" viewBox="0 0 512 512"><path d="M415.2 49.8c16.7 13.1 28.3 34.3 32.9 56.4l1.7.6 52.4 24.2c6 2.8 9.8 8.7 9.8 15.3v316.6c0 11.2-10.8 19.3-21.7 16.2l-145.1-40.9-172.6 47.5c-3.1.9-6.4.8-9.5-.1l-151-44.8C4.9 438.6 0 432.1 0 424.6V102.4C0 91.1 10.9 83 21.9 86.2l146 42.5 74.2-22.7 3.1-.7c2.9-16.8 10.9-32.9 24.3-48.6 15.9-18.7 43.9-29.6 71.2-30.9 28.3-1.4 49.9 4.7 74.5 24M34.1 124.9V412l124.7 37.1V161.2zm210.2 15.8L193 156.4v288.7l129.7-35.7v-84.3c0-9.3 7.6-16.9 17-16.9s17.1 7.5 17.1 16.9v81.4L478 440.7V157.1l-28.7-13.3c-.5 2.8-1.1 5.6-1.9 8.3-5.6 19.8-14.8 37.8-27.5 54l-63.4 79.2c-7.1 8.9-21 8.4-27.5-1l-59.3-85.8c-9.8-13.7-16.6-25.8-20.5-36.8-2.5-6.9-4.1-13.8-4.9-21m98.1-81.2c-18.6.9-37.7 8.4-46.8 19-11 12.8-16.3 24.8-17.4 36.9-1.3 14.6-.4 24.9 3.2 35.1 2.7 7.6 8.1 17.1 16.3 28.7l46.4 67.1 48.9-61c9.9-12.7 17.1-26.8 21.5-42.4 6.1-21.5-3.1-53.1-20.5-66.7-17.8-13.9-31.2-17.7-51.6-16.7m3.5 17.8c28.3 0 51.2 22.7 51.2 50.6 0 28-22.9 50.6-51.2 50.6s-51.2-22.7-51.2-50.6 22.9-50.6 51.2-50.6m0 33.8c-9.4 0-17.1 7.6-17.1 16.9s7.6 16.9 17.1 16.9c9.4 0 17.1-7.6 17.1-16.9-.1-9.4-7.7-16.9-17.1-16.9" style="fill:currentColor"/></svg>