<svg width="317" height="52" viewBox="0 0 317 52" fill="none" xmlns="http://www.w3.org/2000/svg">
<path d="M0 8C0 3.58172 3.58172 0 8 0H309C313.418 0 317 3.58172 317 8V44C317 48.4183 313.418 52 309 52H8C3.58173 52 0 48.4183 0 44V8Z" fill="#03A94D"/>
<g clip-path="url(#clip0_340_783)">
<path fill-rule="evenodd" clip-rule="evenodd" d="M90.2045 26.6355L83.5312 17H78V35H83.7955V25.3679L90.4688 35H96V17H90.2045V26.6355Z" fill="white"/>
</g>
<path d="M105.674 19.86H107.168V29.4H105.674V19.86ZM105.674 28.986H106.718C107.666 28.986 108.596 28.956 109.508 28.896C110.432 28.824 111.404 28.68 112.424 28.464L112.64 29.742C111.572 29.97 110.564 30.12 109.616 30.192C108.68 30.252 107.714 30.282 106.718 30.282H105.674V28.986ZM117.302 18.114H118.742V34.404H117.302V18.114ZM110.21 23.586H114.26V24.81H110.21V23.586ZM113.846 18.51H115.268V33.576H113.846V18.51ZM132.985 18.114H134.479V34.422H132.985V18.114ZM125.893 19.374C126.697 19.374 127.405 19.608 128.017 20.076C128.641 20.532 129.127 21.186 129.475 22.038C129.835 22.89 130.015 23.892 130.015 25.044C130.015 26.196 129.835 27.198 129.475 28.05C129.127 28.902 128.641 29.562 128.017 30.03C127.405 30.498 126.697 30.732 125.893 30.732C125.089 30.732 124.375 30.498 123.751 30.03C123.127 29.562 122.635 28.902 122.275 28.05C121.927 27.198 121.753 26.196 121.753 25.044C121.753 23.892 121.927 22.89 122.275 22.038C122.635 21.186 123.127 20.532 123.751 20.076C124.375 19.608 125.089 19.374 125.893 19.374ZM125.893 20.706C125.353 20.706 124.879 20.886 124.471 21.246C124.075 21.594 123.763 22.098 123.535 22.758C123.307 23.406 123.193 24.168 123.193 25.044C123.193 25.92 123.307 26.688 123.535 27.348C123.763 27.996 124.075 28.5 124.471 28.86C124.879 29.22 125.353 29.4 125.893 29.4C126.421 29.4 126.883 29.22 127.279 28.86C127.687 28.5 128.005 27.996 128.233 27.348C128.461 26.688 128.575 25.92 128.575 25.044C128.575 24.168 128.461 23.406 128.233 22.758C128.005 22.098 127.687 21.594 127.279 21.246C126.883 20.886 126.421 20.706 125.893 20.706ZM149.333 18.114H150.809V34.422H149.333V18.114ZM145.049 24.162H149.765V25.386H145.049V24.162ZM138.065 19.392H139.559V23.622H144.077V19.392H145.535V30.318H138.065V19.392ZM139.559 24.81V29.094H144.077V24.81H139.559ZM153.676 31.146H168.436V32.388H153.676V31.146ZM160.282 27.672H161.758V31.668H160.282V27.672ZM155.476 19.32H166.6V24.252H156.988V27.51H155.512V23.064H165.124V20.544H155.476V19.32ZM155.512 26.88H166.978V28.104H155.512V26.88ZM178.981 19.518H180.223V22.434C180.223 23.37 180.103 24.282 179.863 25.17C179.635 26.046 179.305 26.868 178.873 27.636C178.453 28.392 177.955 29.064 177.379 29.652C176.815 30.228 176.197 30.684 175.525 31.02L174.607 29.778C175.219 29.502 175.789 29.106 176.317 28.59C176.845 28.074 177.307 27.492 177.703 26.844C178.099 26.184 178.411 25.476 178.639 24.72C178.867 23.964 178.981 23.202 178.981 22.434V19.518ZM179.233 19.518H180.475V22.434C180.475 23.178 180.583 23.91 180.799 24.63C181.027 25.35 181.339 26.034 181.735 26.682C182.143 27.318 182.605 27.882 183.121 28.374C183.649 28.854 184.213 29.232 184.813 29.508L183.913 30.696C183.253 30.384 182.641 29.946 182.077 29.382C181.513 28.818 181.015 28.17 180.583 27.438C180.163 26.706 179.833 25.914 179.593 25.062C179.353 24.21 179.233 23.334 179.233 22.434V19.518ZM186.523 18.114H188.017V34.422H186.523V18.114ZM194.969 19.788H196.193V21.102C196.193 22.098 196.001 23.028 195.617 23.892C195.245 24.744 194.723 25.488 194.051 26.124C193.379 26.748 192.587 27.222 191.675 27.546L190.883 26.394C191.699 26.106 192.413 25.692 193.025 25.152C193.637 24.612 194.111 24 194.447 23.316C194.795 22.62 194.969 21.882 194.969 21.102V19.788ZM195.239 19.788H196.463V21.102C196.463 21.81 196.625 22.494 196.949 23.154C197.273 23.814 197.729 24.396 198.317 24.9C198.917 25.404 199.613 25.794 200.405 26.07L199.649 27.24C198.761 26.916 197.981 26.454 197.309 25.854C196.649 25.242 196.139 24.528 195.779 23.712C195.419 22.896 195.239 22.026 195.239 21.102V19.788ZM191.333 19.248H200.045V20.472H191.333V19.248ZM202.097 18.114H203.591V27.924H202.097V18.114ZM203.177 22.398H205.985V23.658H203.177V22.398ZM193.007 28.788H203.591V34.404H202.097V30.012H193.007V28.788ZM218.248 18.114H219.724V34.404H218.248V18.114ZM219.382 24.81H222.388V26.07H219.382V24.81ZM207.124 20.724H216.718V21.948H207.124V20.724ZM212.002 23.28C212.77 23.28 213.448 23.442 214.036 23.766C214.636 24.09 215.104 24.534 215.44 25.098C215.788 25.65 215.962 26.292 215.962 27.024C215.962 27.756 215.788 28.404 215.44 28.968C215.104 29.532 214.636 29.976 214.036 30.3C213.448 30.612 212.77 30.768 212.002 30.768C211.234 30.768 210.55 30.612 209.95 30.3C209.362 29.976 208.894 29.532 208.546 28.968C208.198 28.404 208.024 27.756 208.024 27.024C208.024 26.292 208.198 25.65 208.546 25.098C208.894 24.534 209.362 24.09 209.95 23.766C210.55 23.442 211.234 23.28 212.002 23.28ZM212.002 24.522C211.51 24.522 211.072 24.63 210.688 24.846C210.304 25.062 209.998 25.356 209.77 25.728C209.554 26.1 209.446 26.532 209.446 27.024C209.446 27.516 209.554 27.954 209.77 28.338C209.998 28.71 210.304 29.004 210.688 29.22C211.072 29.424 211.51 29.526 212.002 29.526C212.482 29.526 212.914 29.424 213.298 29.22C213.682 29.004 213.982 28.71 214.198 28.338C214.426 27.954 214.54 27.516 214.54 27.024C214.54 26.532 214.426 26.1 214.198 25.728C213.982 25.356 213.682 25.062 213.298 24.846C212.914 24.63 212.482 24.522 212.002 24.522ZM211.228 18.312H212.722V21.264H211.228V18.312ZM235.335 18.114H236.829V34.404H235.335V18.114ZM230.565 19.878H232.041C232.041 21.054 231.897 22.188 231.609 23.28C231.333 24.372 230.895 25.41 230.295 26.394C229.695 27.366 228.915 28.272 227.955 29.112C226.995 29.952 225.831 30.702 224.463 31.362L223.671 30.156C225.243 29.4 226.539 28.518 227.559 27.51C228.579 26.502 229.335 25.38 229.827 24.144C230.319 22.896 230.565 21.552 230.565 20.112V19.878ZM224.427 19.878H231.195V21.084H224.427V19.878Z" fill="white"/>
<defs>
<clipPath id="clip0_340_783">
<rect width="18" height="18" fill="white" transform="translate(78 17)"/>
</clipPath>
</defs>
</svg>
