<svg width="387" height="376" viewBox="0 0 387 376" fill="none" xmlns="http://www.w3.org/2000/svg">
<path d="M362.812 0H24.1875C10.8291 0 0 9.90241 0 22.1176V353.882C0 366.098 10.8291 376 24.1875 376H362.812C376.171 376 387 366.098 387 353.882V22.1176C387 9.90241 376.171 0 362.812 0Z" fill="#FFFEF7"/>
<path d="M362.812 0.552979H24.1873C11.1629 0.552979 0.604492 10.2078 0.604492 22.1177V353.882C0.604492 365.792 11.1629 375.447 24.1873 375.447H362.812C375.837 375.447 386.395 365.792 386.395 353.882V22.1177C386.395 10.2078 375.837 0.552979 362.812 0.552979Z" stroke="#E8E5DA"/>
<mask id="mask0_131_753" style="mask-type:luminance" maskUnits="userSpaceOnUse" x="0" y="0" width="387" height="376">
<path d="M362.812 0H24.1875C10.8291 0 0 9.90241 0 22.1176V353.882C0 366.098 10.8291 376 24.1875 376H362.812C376.171 376 387 366.098 387 353.882V22.1176C387 9.90241 376.171 0 362.812 0Z" fill="white"/>
</mask>
<g mask="url(#mask0_131_753)">
<g opacity="0.6">
<path opacity="0.7" d="M291.465 64.4902C300.294 64.4902 307.451 61.6942 307.451 58.2451C307.451 54.796 300.294 52 291.465 52C282.636 52 275.479 54.796 275.479 58.2451C275.479 61.6942 282.636 64.4902 291.465 64.4902Z" fill="#7FAEC6"/>
<path opacity="0.8" d="M284.36 58.2451C285.341 58.2451 286.136 57.4463 286.136 56.4608C286.136 55.4754 285.341 54.6765 284.36 54.6765C283.379 54.6765 282.584 55.4754 282.584 56.4608C282.584 57.4463 283.379 58.2451 284.36 58.2451Z" fill="#FFFEF7"/>
<path opacity="0.8" d="M289.689 58.2451C290.67 58.2451 291.465 57.4463 291.465 56.4608C291.465 55.4754 290.67 54.6765 289.689 54.6765C288.708 54.6765 287.913 55.4754 287.913 56.4608C287.913 57.4463 288.708 58.2451 289.689 58.2451Z" fill="#FFFEF7"/>
<path opacity="0.8" d="M295.017 58.2451C295.998 58.2451 296.794 57.4463 296.794 56.4608C296.794 55.4754 295.998 54.6765 295.017 54.6765C294.036 54.6765 293.241 55.4754 293.241 56.4608C293.241 57.4463 294.036 58.2451 295.017 58.2451Z" fill="#FFFEF7"/>
<path opacity="0.5" d="M286.137 61.8137C289.689 66.5719 293.241 66.5719 296.794 61.8137Z" fill="#5B93B0"/>
<path opacity="0.6" d="M275.48 58.2452C274.296 53.487 274.888 51.7027 277.256 52.8923L280.808 56.4609" fill="#7FAEC6"/>
<path opacity="0.5" d="M305.674 62.7057C307.636 62.7057 309.227 60.7086 309.227 58.245C309.227 55.7813 307.636 53.7842 305.674 53.7842C303.713 53.7842 302.122 55.7813 302.122 58.245C302.122 60.7086 303.713 62.7057 305.674 62.7057Z" fill="#F5DCA0"/>
<path opacity="0.3" d="M270.152 59.3157C270.74 59.3157 271.217 58.8364 271.217 58.2451C271.217 57.6539 270.74 57.1746 270.152 57.1746C269.563 57.1746 269.086 57.6539 269.086 58.2451C269.086 58.8364 269.563 59.3157 270.152 59.3157Z" fill="#C4C0B4"/>
<path opacity="0.2" d="M265.71 59.851C266.103 59.851 266.421 59.5315 266.421 59.1373C266.421 58.7431 266.103 58.4236 265.71 58.4236C265.318 58.4236 265 58.7431 265 59.1373C265 59.5315 265.318 59.851 265.71 59.851Z" fill="#C4C0B4"/>
</g>
<g opacity="0.85">
<path d="M331.691 123.386C330.382 114.946 328.855 107.56 327.109 101.229C325.8 97.0091 326.237 92.7887 328.418 88.5684" stroke="#8BAFC4" stroke-width="1.8" stroke-linecap="round"/>
<path d="M327.109 101.229C323.618 99.1191 320.128 98.6971 316.637 99.9632" stroke="#8BAFC4" stroke-width="1.3" stroke-linecap="round"/>
<path d="M328.418 93.6326C331.909 91.1003 335.181 90.4673 338.236 91.7334" stroke="#8BAFC4" stroke-width="1.3" stroke-linecap="round"/>
<path opacity="0.35" d="M314.611 102.103C317.056 101.47 318.772 99.9983 318.444 98.8163C318.117 97.6343 315.87 97.1896 313.426 97.823C310.981 98.4565 309.265 99.9282 309.593 101.11C309.92 102.292 312.167 102.737 314.611 102.103Z" fill="#8BAFC4"/>
<path opacity="0.35" d="M339.416 93.1824C341.794 94.0195 344.072 93.7659 344.505 92.616C344.938 91.4661 343.361 89.8554 340.983 89.0183C338.605 88.1813 336.327 88.4349 335.894 89.5847C335.461 90.7346 337.038 92.3454 339.416 93.1824Z" fill="#8BAFC4"/>
<path opacity="0.5" d="M328.419 90.4674C332.395 90.4674 335.618 87.3497 335.618 83.5039C335.618 79.658 332.395 76.5403 328.419 76.5403C324.442 76.5403 321.219 79.658 321.219 83.5039C321.219 87.3497 324.442 90.4674 328.419 90.4674Z" fill="#F5DCA0"/>
<path opacity="0.6" d="M327.109 84.0913C329.301 82.8676 329.905 79.912 328.459 77.4897C327.013 75.0674 324.065 74.0958 321.873 75.3195C319.682 76.5432 319.077 79.4988 320.523 81.9211C321.969 84.3433 324.918 85.315 327.109 84.0913Z" fill="#F5DCA0"/>
<path opacity="0.6" d="M329.728 84.0913C331.919 85.315 334.868 84.3433 336.314 81.921C337.76 79.4988 337.155 76.5431 334.964 75.3194C332.773 74.0958 329.824 75.0674 328.378 77.4897C326.932 79.912 327.536 82.8676 329.728 84.0913Z" fill="#F5DCA0"/>
<path opacity="0.5" d="M324.457 90.2383C326.835 91.0754 329.364 90.156 330.105 88.1847C330.847 86.2135 329.521 83.9369 327.143 83.0998C324.765 82.2628 322.237 83.1822 321.495 85.1535C320.753 87.1247 322.079 89.4013 324.457 90.2383Z" fill="#F5DCA0"/>
<path opacity="0.5" d="M333.531 90.3164C335.626 89.7735 336.794 87.417 336.139 85.053C335.484 82.689 333.255 81.2128 331.16 81.7557C329.065 82.2986 327.897 84.6552 328.552 87.0191C329.207 89.3831 331.436 90.8594 333.531 90.3164Z" fill="#F5DCA0"/>
<path opacity="0.7" d="M328.418 86.6691C330.226 86.6691 331.691 85.252 331.691 83.5039C331.691 81.7558 330.226 80.3386 328.418 80.3386C326.611 80.3386 325.146 81.7558 325.146 83.5039C325.146 85.252 326.611 86.6691 328.418 86.6691Z" fill="#EBC87A"/>
<path opacity="0.4" d="M316.637 98.0642C318.444 98.0642 319.91 96.647 319.91 94.8989C319.91 93.1508 318.444 91.7336 316.637 91.7336C314.829 91.7336 313.364 93.1508 313.364 94.8989C313.364 96.647 314.829 98.0642 316.637 98.0642Z" fill="#F5DCA0"/>
<path opacity="0.45" d="M315.793 95.974C317.151 95.4957 317.752 93.7763 317.133 92.1336C316.515 90.4909 314.913 89.547 313.554 90.0253C312.195 90.5036 311.595 92.223 312.213 93.8657C312.831 95.5084 314.434 96.4524 315.793 95.974Z" fill="#F5DCA0"/>
<path opacity="0.45" d="M317.481 95.974C318.84 96.4523 320.443 95.5084 321.061 93.8657C321.679 92.223 321.079 90.5036 319.72 90.0252C318.361 89.5469 316.759 90.4909 316.14 92.1336C315.522 93.7763 316.123 95.4957 317.481 95.974Z" fill="#F5DCA0"/>
<path opacity="0.6" d="M316.636 96.4814C317.54 96.4814 318.273 95.7729 318.273 94.8988C318.273 94.0247 317.54 93.3162 316.636 93.3162C315.733 93.3162 315 94.0247 315 94.8988C315 95.7729 315.733 96.4814 316.636 96.4814Z" fill="#EBC87A"/>
<path opacity="0.4" d="M340.2 89.5178C341.465 89.5178 342.491 88.5258 342.491 87.3021C342.491 86.0784 341.465 85.0864 340.2 85.0864C338.935 85.0864 337.909 86.0784 337.909 87.3021C337.909 88.5258 338.935 89.5178 340.2 89.5178Z" fill="#F5DCA0"/>
<path opacity="0.5" d="M340.2 88.4416C340.85 88.4416 341.378 87.9314 341.378 87.3021C341.378 86.6728 340.85 86.1626 340.2 86.1626C339.549 86.1626 339.021 86.6728 339.021 87.3021C339.021 87.9314 339.549 88.4416 340.2 88.4416Z" fill="#EBC87A"/>
<path opacity="0.4" d="M320.564 89.3279C320.998 89.3279 321.349 88.9878 321.349 88.5683C321.349 88.1487 320.998 87.8086 320.564 87.8086C320.13 87.8086 319.778 88.1487 319.778 88.5683C319.778 88.9878 320.13 89.3279 320.564 89.3279Z" fill="#8BAFC4"/>
<path opacity="0.4" d="M336.272 82.8708C336.633 82.8708 336.926 82.5874 336.926 82.2378C336.926 81.8882 336.633 81.6047 336.272 81.6047C335.91 81.6047 335.617 81.8882 335.617 82.2378C335.617 82.5874 335.91 82.8708 336.272 82.8708Z" fill="#8BAFC4"/>
<path opacity="0.35" d="M321.873 98.6973C322.235 98.6973 322.528 98.4138 322.528 98.0642C322.528 97.7146 322.235 97.4312 321.873 97.4312C321.512 97.4312 321.219 97.7146 321.219 98.0642C321.219 98.4138 321.512 98.6973 321.873 98.6973Z" fill="#8BAFC4"/>
<path opacity="0.7" d="M340.722 77.2565C342.487 76.0654 343.151 74.0452 342.206 72.7443C341.26 71.4435 339.064 71.3545 337.299 72.5456C335.535 73.7368 334.871 75.757 335.816 77.0578C336.761 78.3587 338.958 78.4476 340.722 77.2565Z" fill="#F5DCA0"/>
<path opacity="0.45" d="M346.018 75.8323C348.194 76.0321 350.06 74.9373 350.187 73.3869C350.315 71.8366 348.655 70.4178 346.479 70.218C344.304 70.0182 342.438 71.113 342.311 72.6633C342.183 74.2137 343.843 75.6325 346.018 75.8323Z" fill="#8BAFC4"/>
<path opacity="0.5" d="M341.222 78.6115C342.653 78.5012 343.728 77.5553 343.624 76.4989C343.52 75.4425 342.276 74.6755 340.845 74.7858C339.414 74.8962 338.338 75.842 338.442 76.8984C338.546 77.9549 339.791 78.7219 341.222 78.6115Z" fill="#F5DCA0"/>
<path opacity="0.35" d="M346.272 77.2967C347.574 76.7144 348.252 75.4646 347.785 74.5053C347.318 73.546 345.885 73.2405 344.582 73.8228C343.28 74.4051 342.603 75.6549 343.07 76.6142C343.536 77.5735 344.97 77.8791 346.272 77.2967Z" fill="#8BAFC4"/>
<path d="M342.479 73.4182L343.664 77.6986" stroke="#9A8A6E" stroke-width="0.8"/>
<path d="M342.479 73.433L339.904 71.4487" stroke="#9A8A6E" stroke-width="0.5" stroke-linecap="round"/>
<path d="M342.498 73.4181L343.68 70.4807" stroke="#9A8A6E" stroke-width="0.5" stroke-linecap="round"/>
</g>
<path d="M33.8623 124.376H353.137" stroke="#E8E5DA"/>
<path d="M0 302.929H387" stroke="#E8E5DA"/>
<path d="M0 303H387V356.053C387 368.684 378.938 375 362.813 375H24.1875C8.0625 375 0 368.684 0 356.053V303Z" fill="#FAF8F2"/>
</g>
</svg>
