<svg width="387" height="455" viewBox="0 0 387 455" fill="none" xmlns="http://www.w3.org/2000/svg">
<path d="M362.812 0H24.1875C10.8291 0 0 11.983 0 26.7647V428.235C0 443.017 10.8291 455 24.1875 455H362.812C376.171 455 387 443.017 387 428.235V26.7647C387 11.983 376.171 0 362.812 0Z" fill="#FFFEF7"/>
<path d="M362.812 0.669189H24.1873C11.1629 0.669189 0.604492 12.3526 0.604492 26.7648V428.235C0.604492 442.648 11.1629 454.331 24.1873 454.331H362.812C375.837 454.331 386.395 442.648 386.395 428.235V26.7648C386.395 12.3526 375.837 0.669189 362.812 0.669189Z" stroke="#E8E5DA"/>
<mask id="mask0_350_754" style="mask-type:luminance" maskUnits="userSpaceOnUse" x="0" y="0" width="387" height="455">
<path d="M362.812 0H24.1875C10.8291 0 0 11.983 0 26.7647V428.235C0 443.017 10.8291 455 24.1875 455H362.812C376.171 455 387 443.017 387 428.235V26.7647C387 11.983 376.171 0 362.812 0Z" fill="white"/>
</mask>
<g mask="url(#mask0_350_754)">
<g opacity="0.6">
<path opacity="0.7" d="M280.465 77.072C289.294 77.072 296.451 73.6885 296.451 69.5148C296.451 65.341 289.294 61.9575 280.465 61.9575C271.636 61.9575 264.479 65.341 264.479 69.5148C264.479 73.6885 271.636 77.072 280.465 77.072Z" fill="#7FAEC6"/>
<path opacity="0.8" d="M273.36 69.5147C274.341 69.5147 275.136 68.548 275.136 67.3555C275.136 66.163 274.341 65.1963 273.36 65.1963C272.379 65.1963 271.584 66.163 271.584 67.3555C271.584 68.548 272.379 69.5147 273.36 69.5147Z" fill="#FFFEF7"/>
<path opacity="0.8" d="M278.689 69.5147C279.67 69.5147 280.465 68.548 280.465 67.3555C280.465 66.163 279.67 65.1963 278.689 65.1963C277.708 65.1963 276.913 66.163 276.913 67.3555C276.913 68.548 277.708 69.5147 278.689 69.5147Z" fill="#FFFEF7"/>
<path opacity="0.8" d="M284.017 69.5147C284.998 69.5147 285.794 68.548 285.794 67.3555C285.794 66.163 284.998 65.1963 284.017 65.1963C283.036 65.1963 282.241 66.163 282.241 67.3555C282.241 68.548 283.036 69.5147 284.017 69.5147Z" fill="#FFFEF7"/>
<path opacity="0.5" d="M275.137 73.833C278.689 79.5909 282.241 79.5909 285.794 73.833Z" fill="#5B93B0"/>
<path opacity="0.6" d="M264.48 69.5147C263.296 63.7568 263.888 61.5976 266.256 63.0371L269.808 67.3555" fill="#7FAEC6"/>
<path opacity="0.5" d="M294.674 74.9125C296.636 74.9125 298.227 72.4957 298.227 69.5145C298.227 66.5332 296.636 64.1165 294.674 64.1165C292.713 64.1165 291.122 66.5332 291.122 69.5145C291.122 72.4957 292.713 74.9125 294.674 74.9125Z" fill="#F5DCA0"/>
<path opacity="0.3" d="M259.152 70.8103C259.74 70.8103 260.217 70.2303 260.217 69.5148C260.217 68.7993 259.74 68.2192 259.152 68.2192C258.563 68.2192 258.086 68.7993 258.086 69.5148C258.086 70.2303 258.563 70.8103 259.152 70.8103Z" fill="#C4C0B4"/>
<path opacity="0.2" d="M254.71 71.4581C255.103 71.4581 255.421 71.0714 255.421 70.5944C255.421 70.1174 255.103 69.7307 254.71 69.7307C254.318 69.7307 254 70.1174 254 70.5944C254 71.0714 254.318 71.4581 254.71 71.4581Z" fill="#C4C0B4"/>
</g>
<g opacity="0.85">
<path d="M332.691 124.14C331.382 115.106 329.855 107.202 328.109 100.426C326.8 95.9094 327.237 91.3924 329.418 86.8755" stroke="#8BAFC4" stroke-width="1.8" stroke-linecap="round"/>
<path d="M328.109 100.426C324.618 98.1677 321.128 97.716 317.637 99.0711" stroke="#8BAFC4" stroke-width="1.3" stroke-linecap="round"/>
<path d="M329.418 92.2956C332.909 89.5854 336.181 88.9079 339.236 90.263" stroke="#8BAFC4" stroke-width="1.3" stroke-linecap="round"/>
<path opacity="0.35" d="M315.611 101.362C318.056 100.684 319.772 99.1087 319.444 97.8436C319.117 96.5785 316.87 96.1026 314.426 96.7805C311.981 97.4585 310.265 99.0336 310.593 100.299C310.92 101.564 313.167 102.04 315.611 101.362Z" fill="#8BAFC4"/>
<path opacity="0.35" d="M340.416 91.814C342.794 92.7099 345.072 92.4384 345.505 91.2077C345.938 89.977 344.361 88.2531 341.983 87.3572C339.605 86.4614 337.327 86.7328 336.894 87.9635C336.461 89.1942 338.038 90.9181 340.416 91.814Z" fill="#8BAFC4"/>
<path opacity="0.5" d="M329.419 88.9079C333.395 88.9079 336.618 85.5711 336.618 81.4549C336.618 77.3388 333.395 74.002 329.419 74.002C325.442 74.002 322.219 77.3388 322.219 81.4549C322.219 85.5711 325.442 88.9079 329.419 88.9079Z" fill="#F5DCA0"/>
<path opacity="0.6" d="M328.109 82.0838C330.301 80.7741 330.905 77.6108 329.459 75.0182C328.013 72.4257 325.065 71.3858 322.873 72.6955C320.682 74.0052 320.077 77.1685 321.523 79.761C322.969 82.3535 325.918 83.3935 328.109 82.0838Z" fill="#F5DCA0"/>
<path opacity="0.6" d="M330.728 82.0839C332.919 83.3936 335.868 82.3537 337.314 79.7611C338.76 77.1686 338.155 74.0053 335.964 72.6956C333.773 71.3859 330.824 72.4259 329.378 75.0184C327.932 77.6109 328.536 80.7742 330.728 82.0839Z" fill="#F5DCA0"/>
<path opacity="0.5" d="M325.457 88.6627C327.835 89.5586 330.364 88.5745 331.105 86.4647C331.847 84.355 330.521 81.9184 328.143 81.0225C325.765 80.1266 323.237 81.1107 322.495 83.2205C321.753 85.3302 323.079 87.7668 325.457 88.6627Z" fill="#F5DCA0"/>
<path opacity="0.5" d="M334.531 88.7462C336.626 88.1651 337.794 85.643 337.139 83.1128C336.484 80.5827 334.255 79.0027 332.16 79.5838C330.065 80.1649 328.897 82.6871 329.552 85.2172C330.207 87.7473 332.436 89.3273 334.531 88.7462Z" fill="#F5DCA0"/>
<path opacity="0.7" d="M329.418 84.8428C331.226 84.8428 332.691 83.3261 332.691 81.4551C332.691 79.5841 331.226 78.0674 329.418 78.0674C327.611 78.0674 326.146 79.5841 326.146 81.4551C326.146 83.3261 327.611 84.8428 329.418 84.8428Z" fill="#EBC87A"/>
<path opacity="0.4" d="M317.637 97.0386C319.444 97.0386 320.91 95.5219 320.91 93.6509C320.91 91.7799 319.444 90.2632 317.637 90.2632C315.829 90.2632 314.364 91.7799 314.364 93.6509C314.364 95.5219 315.829 97.0386 317.637 97.0386Z" fill="#F5DCA0"/>
<path opacity="0.45" d="M316.793 94.8017C318.151 94.2898 318.752 92.4495 318.133 90.6914C317.515 88.9332 315.913 87.923 314.554 88.4349C313.195 88.9468 312.595 90.7871 313.213 92.5452C313.831 94.3034 315.434 95.3136 316.793 94.8017Z" fill="#F5DCA0"/>
<path opacity="0.45" d="M318.481 94.8018C319.84 95.3137 321.443 94.3035 322.061 92.5453C322.679 90.7872 322.079 88.9469 320.72 88.435C319.361 87.9231 317.759 88.9333 317.14 90.6915C316.522 92.4496 317.123 94.2899 318.481 94.8018Z" fill="#F5DCA0"/>
<path opacity="0.6" d="M317.636 95.3447C318.54 95.3447 319.273 94.5864 319.273 93.6509C319.273 92.7154 318.54 91.957 317.636 91.957C316.733 91.957 316 92.7154 316 93.6509C316 94.5864 316.733 95.3447 317.636 95.3447Z" fill="#EBC87A"/>
<path opacity="0.4" d="M341.2 87.8915C342.465 87.8915 343.491 86.8298 343.491 85.5201C343.491 84.2104 342.465 83.1487 341.2 83.1487C339.935 83.1487 338.909 84.2104 338.909 85.5201C338.909 86.8298 339.935 87.8915 341.2 87.8915Z" fill="#F5DCA0"/>
<path opacity="0.5" d="M341.2 86.7399C341.85 86.7399 342.378 86.1939 342.378 85.5204C342.378 84.8468 341.85 84.3008 341.2 84.3008C340.549 84.3008 340.021 84.8468 340.021 85.5204C340.021 86.1939 340.549 86.7399 341.2 86.7399Z" fill="#EBC87A"/>
<path opacity="0.4" d="M321.564 87.6886C321.998 87.6886 322.349 87.3246 322.349 86.8755C322.349 86.4265 321.998 86.0625 321.564 86.0625C321.13 86.0625 320.778 86.4265 320.778 86.8755C320.778 87.3246 321.13 87.6886 321.564 87.6886Z" fill="#8BAFC4"/>
<path opacity="0.4" d="M337.272 80.7774C337.633 80.7774 337.926 80.4741 337.926 80.0999C337.926 79.7257 337.633 79.4224 337.272 79.4224C336.91 79.4224 336.617 79.7257 336.617 80.0999C336.617 80.4741 336.91 80.7774 337.272 80.7774Z" fill="#8BAFC4"/>
<path opacity="0.35" d="M322.873 97.7164C323.235 97.7164 323.528 97.4131 323.528 97.0389C323.528 96.6647 323.235 96.3613 322.873 96.3613C322.512 96.3613 322.219 96.6647 322.219 97.0389C322.219 97.4131 322.512 97.7164 322.873 97.7164Z" fill="#8BAFC4"/>
<path opacity="0.7" d="M341.722 74.7688C343.487 73.4939 344.151 71.3318 343.206 69.9395C342.26 68.5472 340.064 68.452 338.299 69.7268C336.535 71.0017 335.871 73.1638 336.816 74.5561C337.761 75.9484 339.958 76.0436 341.722 74.7688Z" fill="#F5DCA0"/>
<path opacity="0.45" d="M347.018 73.2445C349.194 73.4583 351.06 72.2865 351.187 70.6272C351.315 68.968 349.655 67.4495 347.479 67.2356C345.304 67.0218 343.438 68.1935 343.311 69.8528C343.183 71.5121 344.843 73.0306 347.018 73.2445Z" fill="#8BAFC4"/>
<path opacity="0.5" d="M342.222 76.2189C343.653 76.1008 344.728 75.0885 344.624 73.9578C344.52 72.8271 343.276 72.0062 341.845 72.1243C340.414 72.2424 339.338 73.2547 339.442 74.3854C339.546 75.5161 340.791 76.337 342.222 76.2189Z" fill="#F5DCA0"/>
<path opacity="0.35" d="M347.272 74.8117C348.574 74.1885 349.252 72.8509 348.785 71.8242C348.318 70.7975 346.885 70.4704 345.582 71.0937C344.28 71.7169 343.603 73.0545 344.07 74.0812C344.536 75.1079 345.97 75.435 347.272 74.8117Z" fill="#8BAFC4"/>
<path d="M343.479 70.6604L344.664 75.2416" stroke="#9A8A6E" stroke-width="0.8"/>
<path d="M343.479 70.6767L340.904 68.553" stroke="#9A8A6E" stroke-width="0.5" stroke-linecap="round"/>
<path d="M343.498 70.6604L344.68 67.5165" stroke="#9A8A6E" stroke-width="0.5" stroke-linecap="round"/>
</g>
<path d="M0 382.152H387" stroke="#E8E5DA"/>
<path d="M36 123.915H355.275" stroke="#E8E5DA"/>
<path d="M0 382.152H387V434.938C387 447.506 378.938 453.79 362.813 453.79H24.1875C8.0625 453.79 0 447.506 0 434.938V382.152Z" fill="#FAF8F2"/>
</g>
</svg>
