<svg width="387" height="296" viewBox="0 0 387 296" fill="none" xmlns="http://www.w3.org/2000/svg">
<path d="M362.812 0.0661621H24.1875C10.8291 0.0661621 0 7.83534 0 17.4191V277.713C0 287.297 10.8291 295.066 24.1875 295.066H362.812C376.171 295.066 387 287.297 387 277.713V17.4191C387 7.83534 376.171 0.0661621 362.812 0.0661621Z" fill="#FFFEF7"/>
<path d="M362.812 0.5H24.1873C11.1629 0.5 0.604492 8.07495 0.604492 17.4191V277.713C0.604492 287.057 11.1629 294.632 24.1873 294.632H362.812C375.837 294.632 386.395 287.057 386.395 277.713V17.4191C386.395 8.07495 375.837 0.5 362.812 0.5Z" stroke="#E8E5DA"/>
<mask id="mask0_285_752" style="mask-type:luminance" maskUnits="userSpaceOnUse" x="0" y="0" width="387" height="296">
<path d="M362.812 0.0661621H24.1875C10.8291 0.0661621 0 7.83534 0 17.4191V277.713C0 287.297 10.8291 295.066 24.1875 295.066H362.812C376.171 295.066 387 287.297 387 277.713V17.4191C387 7.83534 376.171 0.0661621 362.812 0.0661621Z" fill="white"/>
</mask>
<g mask="url(#mask0_285_752)">
<g opacity="0.6">
<path opacity="0.7" d="M291.465 50.6635C300.294 50.6635 307.451 48.4698 307.451 45.7638C307.451 43.0577 300.294 40.864 291.465 40.864C282.636 40.864 275.479 43.0577 275.479 45.7638C275.479 48.4698 282.636 50.6635 291.465 50.6635Z" fill="#7FAEC6"/>
<path opacity="0.8" d="M284.36 45.7637C285.341 45.7637 286.136 45.137 286.136 44.3638C286.136 43.5906 285.341 42.9639 284.36 42.9639C283.379 42.9639 282.584 43.5906 282.584 44.3638C282.584 45.137 283.379 45.7637 284.36 45.7637Z" fill="#FFFEF7"/>
<path opacity="0.8" d="M289.689 45.7637C290.67 45.7637 291.465 45.137 291.465 44.3638C291.465 43.5906 290.67 42.9639 289.689 42.9639C288.708 42.9639 287.913 43.5906 287.913 44.3638C287.913 45.137 288.708 45.7637 289.689 45.7637Z" fill="#FFFEF7"/>
<path opacity="0.8" d="M295.017 45.7637C295.998 45.7637 296.794 45.137 296.794 44.3638C296.794 43.5906 295.998 42.9639 295.017 42.9639C294.036 42.9639 293.241 43.5906 293.241 44.3638C293.241 45.137 294.036 45.7637 295.017 45.7637Z" fill="#FFFEF7"/>
<path opacity="0.5" d="M286.137 48.5637C289.689 52.2969 293.241 52.2969 296.794 48.5637H286.137Z" fill="#5B93B0"/>
<path opacity="0.6" d="M275.48 45.7639C274.296 42.0308 274.888 40.6309 277.256 41.5642L280.808 44.364" fill="#7FAEC6"/>
<path opacity="0.5" d="M305.674 49.2636C307.636 49.2636 309.227 47.6966 309.227 45.7637C309.227 43.8308 307.636 42.2639 305.674 42.2639C303.713 42.2639 302.122 43.8308 302.122 45.7637C302.122 47.6966 303.713 49.2636 305.674 49.2636Z" fill="#F5DCA0"/>
<path opacity="0.3" d="M270.152 46.6037C270.74 46.6037 271.217 46.2277 271.217 45.7638C271.217 45.2999 270.74 44.9238 270.152 44.9238C269.563 44.9238 269.086 45.2999 269.086 45.7638C269.086 46.2277 269.563 46.6037 270.152 46.6037Z" fill="#C4C0B4"/>
<path opacity="0.2" d="M265.71 47.0237C266.103 47.0237 266.421 46.773 266.421 46.4638C266.421 46.1545 266.103 45.9038 265.71 45.9038C265.318 45.9038 265 46.1545 265 46.4638C265 46.773 265.318 47.0237 265.71 47.0237Z" fill="#C4C0B4"/>
</g>
<g opacity="0.85">
<path d="M331.691 96.8719C330.382 90.2496 328.855 84.455 327.109 79.4882C325.8 76.177 326.237 72.8659 328.418 69.5547" stroke="#8BAFC4" stroke-width="1.8" stroke-linecap="round"/>
<path d="M327.109 79.4882C323.618 77.8326 320.128 77.5014 316.637 78.4948" stroke="#8BAFC4" stroke-width="1.3" stroke-linecap="round"/>
<path d="M328.418 73.528C331.909 71.5413 335.181 71.0446 338.236 72.0379" stroke="#8BAFC4" stroke-width="1.3" stroke-linecap="round"/>
<path opacity="0.35" d="M314.611 80.174C317.056 79.677 318.772 78.5224 318.444 77.595C318.117 76.6677 315.87 76.3188 313.426 76.8157C310.981 77.3127 309.265 78.4674 309.593 79.3947C309.92 80.3221 312.167 80.671 314.611 80.174Z" fill="#8BAFC4"/>
<path opacity="0.35" d="M339.416 73.1747C341.794 73.8314 344.072 73.6324 344.505 72.7303C344.938 71.8281 343.361 70.5644 340.983 69.9076C338.605 69.2509 336.327 69.4499 335.894 70.352C335.461 71.2542 337.038 72.518 339.416 73.1747Z" fill="#8BAFC4"/>
<path opacity="0.5" d="M328.419 71.0446C332.395 71.0446 335.618 68.5985 335.618 65.5811C335.618 62.5637 332.395 60.1177 328.419 60.1177C324.442 60.1177 321.219 62.5637 321.219 65.5811C321.219 68.5985 324.442 71.0446 328.419 71.0446Z" fill="#F5DCA0"/>
<path opacity="0.6" d="M327.109 66.042C329.301 65.0819 329.905 62.763 328.459 60.8625C327.013 58.9621 324.065 58.1997 321.873 59.1598C319.682 60.1199 319.077 62.4388 320.523 64.3393C321.969 66.2397 324.918 67.0021 327.109 66.042Z" fill="#F5DCA0"/>
<path opacity="0.6" d="M329.728 66.0419C331.919 67.002 334.868 66.2397 336.314 64.3392C337.76 62.4387 337.155 60.1198 334.964 59.1598C332.773 58.1997 329.824 58.962 328.378 60.8625C326.932 62.7629 327.536 65.0818 329.728 66.0419Z" fill="#F5DCA0"/>
<path opacity="0.5" d="M324.457 70.8647C326.835 71.5215 329.364 70.8001 330.105 69.2535C330.847 67.7069 329.521 65.9208 327.143 65.2641C324.765 64.6073 322.237 65.3287 321.495 66.8753C320.753 68.4219 322.079 70.208 324.457 70.8647Z" fill="#F5DCA0"/>
<path opacity="0.5" d="M333.531 70.9262C335.626 70.5002 336.794 68.6514 336.139 66.7966C335.484 64.9419 333.255 63.7837 331.16 64.2097C329.065 64.6356 327.897 66.4845 328.552 68.3392C329.207 70.194 331.436 71.3522 333.531 70.9262Z" fill="#F5DCA0"/>
<path opacity="0.7" d="M328.418 68.0647C330.226 68.0647 331.691 66.9528 331.691 65.5813C331.691 64.2097 330.226 63.0979 328.418 63.0979C326.611 63.0979 325.146 64.2097 325.146 65.5813C325.146 66.9528 326.611 68.0647 328.418 68.0647Z" fill="#EBC87A"/>
<path opacity="0.4" d="M316.637 77.0049C318.444 77.0049 319.91 75.893 319.91 74.5215C319.91 73.1499 318.444 72.0381 316.637 72.0381C314.829 72.0381 313.364 73.1499 313.364 74.5215C313.364 75.893 314.829 77.0049 316.637 77.0049Z" fill="#F5DCA0"/>
<path opacity="0.45" d="M315.793 75.3649C317.151 74.9897 317.752 73.6406 317.133 72.3518C316.515 71.063 314.913 70.3224 313.554 70.6977C312.195 71.073 311.595 72.422 312.213 73.7108C312.831 74.9996 314.434 75.7402 315.793 75.3649Z" fill="#F5DCA0"/>
<path opacity="0.45" d="M317.481 75.3648C318.84 75.7401 320.443 74.9995 321.061 73.7107C321.679 72.4219 321.079 71.0728 319.72 70.6976C318.361 70.3223 316.759 71.0629 316.14 72.3517C315.522 73.6405 316.123 74.9895 317.481 75.3648Z" fill="#F5DCA0"/>
<path opacity="0.6" d="M316.636 75.7629C317.54 75.7629 318.273 75.207 318.273 74.5212C318.273 73.8355 317.54 73.2795 316.636 73.2795C315.733 73.2795 315 73.8355 315 74.5212C315 75.207 315.733 75.7629 316.636 75.7629Z" fill="#EBC87A"/>
<path opacity="0.4" d="M340.2 70.2995C341.465 70.2995 342.491 69.5212 342.491 68.5611C342.491 67.601 341.465 66.8228 340.2 66.8228C338.935 66.8228 337.909 67.601 337.909 68.5611C337.909 69.5212 338.935 70.2995 340.2 70.2995Z" fill="#F5DCA0"/>
<path opacity="0.5" d="M340.2 69.4553C340.85 69.4553 341.378 69.055 341.378 68.5613C341.378 68.0675 340.85 67.6672 340.2 67.6672C339.549 67.6672 339.021 68.0675 339.021 68.5613C339.021 69.055 339.549 69.4553 340.2 69.4553Z" fill="#EBC87A"/>
<path opacity="0.4" d="M320.564 70.1505C320.998 70.1505 321.349 69.8837 321.349 69.5545C321.349 69.2253 320.998 68.9585 320.564 68.9585C320.13 68.9585 319.778 69.2253 319.778 69.5545C319.778 69.8837 320.13 70.1505 320.564 70.1505Z" fill="#8BAFC4"/>
<path opacity="0.4" d="M336.272 65.0844C336.633 65.0844 336.926 64.862 336.926 64.5877C336.926 64.3134 336.633 64.0911 336.272 64.0911C335.91 64.0911 335.617 64.3134 335.617 64.5877C335.617 64.862 335.91 65.0844 336.272 65.0844Z" fill="#8BAFC4"/>
<path opacity="0.35" d="M321.873 77.5014C322.235 77.5014 322.528 77.279 322.528 77.0047C322.528 76.7304 322.235 76.5081 321.873 76.5081C321.512 76.5081 321.219 76.7304 321.219 77.0047C321.219 77.279 321.512 77.5014 321.873 77.5014Z" fill="#8BAFC4"/>
<path opacity="0.7" d="M340.722 60.6797C342.487 59.7451 343.151 58.1602 342.206 57.1395C341.26 56.1189 339.064 56.0491 337.299 56.9837C335.535 57.9182 334.871 59.5032 335.816 60.5238C336.761 61.5444 338.958 61.6142 340.722 60.6797Z" fill="#F5DCA0"/>
<path opacity="0.45" d="M346.018 59.5622C348.194 59.719 350.06 58.86 350.187 57.6437C350.315 56.4273 348.655 55.3142 346.479 55.1574C344.304 55.0006 342.438 55.8596 342.311 57.076C342.183 58.2923 343.843 59.4055 346.018 59.5622Z" fill="#8BAFC4"/>
<path opacity="0.5" d="M341.222 61.7428C342.653 61.6562 343.728 60.9141 343.624 60.0852C343.52 59.2564 342.276 58.6546 340.845 58.7412C339.414 58.8278 338.338 59.5699 338.442 60.3987C338.546 61.2276 339.791 61.8293 341.222 61.7428Z" fill="#F5DCA0"/>
<path opacity="0.35" d="M346.272 60.7113C347.574 60.2544 348.252 59.2739 347.785 58.5212C347.318 57.7686 345.885 57.5288 344.582 57.9857C343.28 58.4426 342.603 59.4231 343.07 60.1758C343.536 60.9284 344.97 61.1682 346.272 60.7113Z" fill="#8BAFC4"/>
<path d="M342.479 57.6682L343.664 61.0265" stroke="#9A8A6E" stroke-width="0.8"/>
<path d="M342.479 57.6799L339.904 56.123" stroke="#9A8A6E" stroke-width="0.5" stroke-linecap="round"/>
<path d="M342.498 57.6683L343.68 55.3636" stroke="#9A8A6E" stroke-width="0.5" stroke-linecap="round"/>
</g>
<path d="M33.8623 97.6487H353.137" stroke="#E8E5DA"/>
<path d="M0 237.737H387" stroke="#E8E5DA"/>
<path d="M0 237.792H387V279.416C387 289.326 378.938 294.282 362.812 294.282H24.1875C8.0625 294.282 0 289.326 0 279.416V237.792Z" fill="#FAF8F2"/>
</g>
</svg>
