<svg width="24" height="24" viewBox="0 0 24 24" fill="none" xmlns="http://www.w3.org/2000/svg">
<path d="M13.5807 4.43939L12.9703 5.04977V4.17535L14.3077 2.838C14.51 2.63911 14.51 2.31335 14.3077 2.11103C14.1088 1.90871 13.783 1.90871 13.5807 2.11103L12.9703 2.72141V1.51437C12.9703 1.22975 12.7406 1 12.456 1C12.1713 1 11.9416 1.22975 11.9416 1.51437V2.72484L11.3312 2.11446C11.1323 1.91214 10.8066 1.91214 10.6042 2.11446C10.4054 2.31335 10.4054 2.63911 10.6042 2.84143L11.9416 4.17878V5.0532L11.3312 4.44282C11.1323 4.2405 10.8066 4.2405 10.6042 4.44282C10.4054 4.64171 10.4054 4.96747 10.6042 5.16979L11.9416 6.50714V6.66145C11.9416 6.94606 12.1713 7.17581 12.456 7.17581C12.7406 7.17581 12.9703 6.94606 12.9703 6.66145V6.50714L14.3077 5.16979C14.51 4.9709 14.51 4.64514 14.3077 4.44282C14.1088 4.2405 13.783 4.2405 13.5807 4.44282V4.43939Z" fill="#E1E1E1"/>
<path d="M13.581 19.0265L12.9706 18.4161V19.2905L14.308 20.6279C14.5103 20.8267 14.5103 21.1525 14.308 21.3548C14.1091 21.5571 13.7833 21.5571 13.581 21.3548L12.9706 20.7444V21.9549C12.9706 22.2395 12.7409 22.4693 12.4563 22.4693C12.1717 22.4693 11.9419 22.2395 11.9419 21.9549V20.7444L11.3315 21.3548C11.1326 21.5571 10.8069 21.5571 10.6046 21.3548C10.4022 21.1525 10.4057 20.8302 10.6046 20.6279L11.9419 19.2905V18.4161L11.3315 19.0265C11.1326 19.2253 10.8069 19.2253 10.6046 19.0265C10.4057 18.8276 10.4057 18.5018 10.6046 18.2995L11.9419 16.9621V16.8044C11.9419 16.5198 12.1717 16.29 12.4563 16.29C12.7409 16.29 12.9706 16.5198 12.9706 16.8044V16.9621L14.308 18.2995C14.5103 18.4984 14.5103 18.8241 14.308 19.0265C14.1091 19.2253 13.7833 19.2253 13.581 19.0265Z" fill="#E1E1E1"/>
<path d="M19.3861 9.19551L18.5563 8.95547L19.3209 8.53369L21.1349 9.05834C21.4058 9.13721 21.6905 8.97947 21.7693 8.70857C21.8482 8.43767 21.6905 8.15306 21.4196 8.07419L20.5897 7.83415L21.6493 7.24778C21.8962 7.11061 21.9888 6.79856 21.8516 6.55167C21.7145 6.30477 21.4024 6.21219 21.1555 6.34935L20.0959 6.93573L20.336 6.10589C20.4148 5.83499 20.2571 5.55037 19.9862 5.4715C19.7153 5.39263 19.4307 5.55037 19.3518 5.82127L18.8272 7.63527L18.0625 8.05704L18.3025 7.2272C18.3814 6.9563 18.2236 6.67169 17.9527 6.59282C17.6818 6.51395 17.3972 6.67169 17.3183 6.94259L16.7937 8.75658L16.6565 8.83202C16.4096 8.96919 16.317 9.28123 16.4542 9.52813C16.5914 9.77502 16.9034 9.86761 17.1503 9.73045L17.2875 9.65501L19.1015 10.1797C19.3724 10.2585 19.657 10.1008 19.7359 9.82989C19.8147 9.55899 19.657 9.27438 19.3861 9.19551Z" fill="#E1E1E1"/>
<path d="M6.61271 16.2384L6.85275 15.4086L6.08806 15.8303L5.5634 17.6443C5.48453 17.9152 5.19992 18.073 4.92902 17.9941C4.65812 17.9152 4.50038 17.6306 4.57925 17.3597L4.81929 16.5299L3.75969 17.1128C3.5128 17.25 3.20075 17.1608 3.06359 16.9105C2.92642 16.6636 3.01901 16.3516 3.2659 16.2144L4.3255 15.6315L3.49565 15.3914C3.22476 15.3126 3.06702 15.0279 3.14589 14.757C3.22476 14.4861 3.50937 14.3284 3.78027 14.4073L5.59426 14.9319L6.35895 14.5101L5.52911 14.2701C5.25821 14.1912 5.10047 13.9066 5.17934 13.6357C5.25821 13.3648 5.54283 13.2071 5.81373 13.286L7.62772 13.8106L7.76489 13.7352C8.01178 13.598 8.32383 13.6872 8.46099 13.9375C8.59816 14.1844 8.50557 14.4964 8.25868 14.6336L8.12151 14.709L7.59686 16.523C7.51799 16.7939 7.23338 16.9517 6.96248 16.8728C6.69158 16.7939 6.53384 16.5093 6.61271 16.2384Z" fill="#E1E1E1"/>
<path d="M5.52911 9.19551L6.35895 8.95547L5.59426 8.53369L3.78027 9.05834C3.50937 9.13721 3.22476 8.97947 3.14589 8.70857C3.06702 8.43767 3.22476 8.15306 3.49565 8.07419L4.3255 7.83415L3.2659 7.24778C3.01901 7.11061 2.92642 6.79856 3.06359 6.55167C3.20075 6.30477 3.5128 6.21219 3.75969 6.34935L4.81929 6.93573L4.57925 6.10589C4.50038 5.83499 4.65812 5.55037 4.92902 5.4715C5.19992 5.39263 5.48453 5.55037 5.5634 5.82127L6.08806 7.63527L6.85275 8.05704L6.61271 7.2272C6.53384 6.9563 6.69158 6.67169 6.96248 6.59282C7.23338 6.51395 7.51799 6.67169 7.59686 6.94259L8.12151 8.75658L8.25868 8.83202C8.50557 8.96919 8.59816 9.28123 8.46099 9.52813C8.32383 9.77502 8.01178 9.86761 7.76489 9.73045L7.62772 9.65501L5.81373 10.1797C5.54283 10.2585 5.25821 10.1008 5.17934 9.82989C5.10047 9.55899 5.25821 9.27438 5.52911 9.19551Z" fill="#E1E1E1"/>
<path d="M18.3025 16.2384L18.0625 15.4086L18.8272 15.8303L19.3518 17.6443C19.4307 17.9152 19.7153 18.073 19.9862 17.9941C20.2571 17.9152 20.4148 17.6306 20.336 17.3597L20.0959 16.5299L21.1555 17.1128C21.4024 17.25 21.7145 17.1608 21.8516 16.9105C21.9888 16.6636 21.8996 16.3516 21.6493 16.2144L20.5897 15.6315L21.4196 15.3914C21.6905 15.3126 21.8482 15.0279 21.7693 14.757C21.6905 14.4861 21.4058 14.3284 21.1349 14.4073L19.3209 14.9319L18.5563 14.5101L19.3861 14.2701C19.657 14.1912 19.8147 13.9066 19.7359 13.6357C19.657 13.3648 19.3724 13.2071 19.1015 13.286L17.2875 13.8106L17.1503 13.7352C16.9034 13.598 16.5914 13.6872 16.4542 13.9375C16.317 14.1844 16.4096 14.4964 16.6565 14.6336L16.7937 14.709L17.3183 16.523C17.3972 16.7939 17.6818 16.9517 17.9527 16.8728C18.2236 16.7939 18.3814 16.5093 18.3025 16.2384Z" fill="#E1E1E1"/>
<path d="M16.7966 8.91754L12.7263 6.56518C12.5617 6.46916 12.3559 6.46916 12.1913 6.56518L8.12099 8.91754C7.95639 9.01355 7.85352 9.18844 7.85352 9.38047V14.0818C7.85352 14.2738 7.95639 14.4521 8.12099 14.5447L12.1913 16.8971C12.2736 16.9451 12.3662 16.9691 12.4588 16.9691C12.5514 16.9691 12.644 16.9451 12.7263 16.8971L16.7966 14.5447C16.9612 14.4487 17.0641 14.2704 17.0641 14.0818V9.38047C17.0641 9.18844 16.9612 9.01013 16.7966 8.91754Z" fill="#E1E1E1"/>
<path d="M15.1331 9.99814L12.623 8.54763C12.5202 8.48933 12.3933 8.48933 12.2938 8.54763L9.78374 9.99814C9.68086 10.0564 9.61914 10.1662 9.61914 10.2828V13.1803C9.61914 13.2969 9.68086 13.4067 9.78374 13.465L12.2938 14.9155C12.3453 14.9463 12.4036 14.96 12.4584 14.96C12.5133 14.96 12.5716 14.9463 12.623 14.9155L15.1331 13.465C15.236 13.4067 15.2977 13.2969 15.2977 13.1803V10.2828C15.2977 10.1662 15.236 10.0564 15.1331 9.99814Z" fill="white"/>
</svg>
