<svg width="24" height="24" viewBox="0 0 24 24" fill="none" xmlns="http://www.w3.org/2000/svg">
<path d="M13.5805 4.43939L12.9701 5.04977V4.17535L14.3074 2.838C14.5097 2.63911 14.5097 2.31335 14.3074 2.11103C14.1085 1.90871 13.7828 1.90871 13.5805 2.11103L12.9701 2.72141V1.51437C12.9701 1.22975 12.7403 1 12.4557 1C12.1711 1 11.9413 1.22975 11.9413 1.51437V2.72484L11.331 2.11446C11.1321 1.91214 10.8063 1.91214 10.604 2.11446C10.4051 2.31335 10.4051 2.63911 10.604 2.84143L11.9413 4.17878V5.0532L11.331 4.44282C11.1321 4.2405 10.8063 4.2405 10.604 4.44282C10.4051 4.64171 10.4051 4.96747 10.604 5.16979L11.9413 6.50714V6.66145C11.9413 6.94606 12.1711 7.17581 12.4557 7.17581C12.7403 7.17581 12.9701 6.94606 12.9701 6.66145V6.50714L14.3074 5.16979C14.5097 4.9709 14.5097 4.64514 14.3074 4.44282C14.1085 4.2405 13.7828 4.2405 13.5805 4.44282V4.43939Z" fill="#A0C1D5"/>
<path d="M13.5808 19.027L12.9704 18.4166V19.291L14.3077 20.6283C14.5101 20.8272 14.5101 21.153 14.3077 21.3553C14.1089 21.5576 13.7831 21.5576 13.5808 21.3553L12.9704 20.7449V21.9554C12.9704 22.24 12.7406 22.4698 12.456 22.4698C12.1714 22.4698 11.9417 22.24 11.9417 21.9554V20.7449L11.3313 21.3553C11.1324 21.5576 10.8066 21.5576 10.6043 21.3553C10.402 21.153 10.4054 20.8307 10.6043 20.6283L11.9417 19.291V18.4166L11.3313 19.027C11.1324 19.2258 10.8066 19.2258 10.6043 19.027C10.4054 18.8281 10.4054 18.5023 10.6043 18.3L11.9417 16.9626V16.8049C11.9417 16.5203 12.1714 16.2905 12.456 16.2905C12.7406 16.2905 12.9704 16.5203 12.9704 16.8049V16.9626L14.3077 18.3C14.5101 18.4989 14.5101 18.8246 14.3077 19.027C14.1089 19.2258 13.7831 19.2258 13.5808 19.027Z" fill="#A0C1D5"/>
<path d="M19.3861 9.19551L18.5563 8.95547L19.3209 8.53369L21.1349 9.05834C21.4058 9.13721 21.6905 8.97947 21.7693 8.70857C21.8482 8.43767 21.6905 8.15306 21.4196 8.07419L20.5897 7.83415L21.6493 7.24778C21.8962 7.11061 21.9888 6.79856 21.8516 6.55167C21.7145 6.30477 21.4024 6.21219 21.1555 6.34935L20.0959 6.93573L20.336 6.10589C20.4148 5.83499 20.2571 5.55037 19.9862 5.4715C19.7153 5.39263 19.4307 5.55037 19.3518 5.82127L18.8272 7.63527L18.0625 8.05704L18.3025 7.2272C18.3814 6.9563 18.2236 6.67169 17.9527 6.59282C17.6818 6.51395 17.3972 6.67169 17.3183 6.94259L16.7937 8.75658L16.6565 8.83202C16.4096 8.96919 16.317 9.28123 16.4542 9.52813C16.5914 9.77502 16.9034 9.86761 17.1503 9.73045L17.2875 9.65501L19.1015 10.1797C19.3724 10.2585 19.657 10.1008 19.7359 9.82989C19.8147 9.55899 19.657 9.27438 19.3861 9.19551Z" fill="#A0C1D5"/>
<path d="M6.61246 16.2389L6.8525 15.4091L6.08781 15.8308L5.56316 17.6448C5.48429 17.9157 5.19967 18.0735 4.92877 17.9946C4.65788 17.9157 4.50014 17.6311 4.57901 17.3602L4.81904 16.5304L3.75945 17.1133C3.51256 17.2505 3.20051 17.1613 3.06334 16.911C2.92618 16.6641 3.01876 16.3521 3.26566 16.2149L4.32525 15.6319L3.49541 15.3919C3.22451 15.313 3.06677 15.0284 3.14564 14.7575C3.22451 14.4866 3.50913 14.3289 3.78003 14.4078L5.59402 14.9324L6.35871 14.5106L5.52887 14.2706C5.25797 14.1917 5.10023 13.9071 5.1791 13.6362C5.25797 13.3653 5.54258 13.2076 5.81348 13.2864L7.62748 13.8111L7.76464 13.7357C8.01154 13.5985 8.32359 13.6876 8.46075 13.938C8.59791 14.1849 8.50533 14.4969 8.25843 14.6341L8.12127 14.7095L7.59662 16.5235C7.51775 16.7944 7.23313 16.9522 6.96223 16.8733C6.69133 16.7944 6.53359 16.5098 6.61246 16.2389Z" fill="#A0C1D5"/>
<path d="M5.52887 9.19551L6.35871 8.95547L5.59402 8.53369L3.78003 9.05834C3.50913 9.13721 3.22451 8.97947 3.14564 8.70857C3.06677 8.43767 3.22451 8.15306 3.49541 8.07419L4.32525 7.83415L3.26566 7.24778C3.01876 7.11061 2.92618 6.79856 3.06334 6.55167C3.20051 6.30477 3.51256 6.21219 3.75945 6.34935L4.81904 6.93573L4.57901 6.10589C4.50014 5.83499 4.65788 5.55037 4.92877 5.4715C5.19967 5.39263 5.48429 5.55037 5.56316 5.82127L6.08781 7.63527L6.8525 8.05704L6.61246 7.2272C6.53359 6.9563 6.69133 6.67169 6.96223 6.59282C7.23313 6.51395 7.51775 6.67169 7.59662 6.94259L8.12127 8.75658L8.25843 8.83202C8.50533 8.96919 8.59791 9.28123 8.46075 9.52813C8.32359 9.77502 8.01154 9.86761 7.76464 9.73045L7.62748 9.65501L5.81348 10.1797C5.54258 10.2585 5.25797 10.1008 5.1791 9.82989C5.10023 9.55899 5.25797 9.27438 5.52887 9.19551Z" fill="#A0C1D5"/>
<path d="M18.3025 16.2389L18.0625 15.4091L18.8272 15.8308L19.3518 17.6448C19.4307 17.9157 19.7153 18.0735 19.9862 17.9946C20.2571 17.9157 20.4148 17.6311 20.336 17.3602L20.0959 16.5304L21.1555 17.1133C21.4024 17.2505 21.7145 17.1613 21.8516 16.911C21.9888 16.6641 21.8996 16.3521 21.6493 16.2149L20.5897 15.6319L21.4196 15.3919C21.6905 15.313 21.8482 15.0284 21.7693 14.7575C21.6905 14.4866 21.4058 14.3289 21.1349 14.4078L19.3209 14.9324L18.5563 14.5106L19.3861 14.2706C19.657 14.1917 19.8147 13.9071 19.7359 13.6362C19.657 13.3653 19.3724 13.2076 19.1015 13.2864L17.2875 13.8111L17.1503 13.7357C16.9034 13.5985 16.5914 13.6876 16.4542 13.938C16.317 14.1849 16.4096 14.4969 16.6565 14.6341L16.7937 14.7095L17.3183 16.5235C17.3972 16.7944 17.6818 16.9522 17.9527 16.8733C18.2236 16.7944 18.3814 16.5098 18.3025 16.2389Z" fill="#A0C1D5"/>
<path d="M16.7969 8.91754L12.7265 6.56518C12.5619 6.46916 12.3562 6.46916 12.1916 6.56518L8.12123 8.91754C7.95663 9.01355 7.85376 9.18844 7.85376 9.38047V14.0818C7.85376 14.2738 7.95663 14.4521 8.12123 14.5447L12.1916 16.8971C12.2739 16.9451 12.3665 16.9691 12.459 16.9691C12.5516 16.9691 12.6442 16.9451 12.7265 16.8971L16.7969 14.5447C16.9615 14.4487 17.0643 14.2704 17.0643 14.0818V9.38047C17.0643 9.18844 16.9615 9.01013 16.7969 8.91754Z" fill="#A0C1D5"/>
<path d="M15.1336 9.99789L12.6235 8.54738C12.5206 8.48909 12.3938 8.48909 12.2943 8.54738L9.78423 9.99789C9.68135 10.0562 9.61963 10.1659 9.61963 10.2825V13.1801C9.61963 13.2967 9.68135 13.4064 9.78423 13.4647L12.2943 14.9152C12.3458 14.9461 12.4041 14.9598 12.4589 14.9598C12.5138 14.9598 12.5721 14.9461 12.6235 14.9152L15.1336 13.4647C15.2365 13.4064 15.2982 13.2967 15.2982 13.1801V10.2825C15.2982 10.1659 15.2365 10.0562 15.1336 9.99789Z" fill="white"/>
</svg>
