<svg width="24" height="24" viewBox="0 0 24 24" fill="none" xmlns="http://www.w3.org/2000/svg">
<path d="M11.63 17.9406C15.1172 17.9406 17.9441 15.1137 17.9441 11.6266C17.9441 8.13941 15.1172 5.3125 11.63 5.3125C8.14282 5.3125 5.31592 8.13941 5.31592 11.6266C5.31592 15.1137 8.14282 17.9406 11.63 17.9406Z" fill="#E1E1E1"/>
<path d="M11.6299 4.54777C11.1037 4.54777 10.6785 4.12255 10.6785 3.59638V3.20481C10.6785 2.67864 11.1037 2.25342 11.6299 2.25342C12.156 2.25342 12.5813 2.67864 12.5813 3.20481V3.59638C12.5813 4.1195 12.156 4.54777 11.6299 4.54777Z" fill="#E1E1E1"/>
<path d="M11.6299 20.9967C11.1037 20.9967 10.6785 20.5715 10.6785 20.0454V19.6538C10.6785 19.1307 11.1037 18.7024 11.6299 18.7024C12.156 18.7024 12.5813 19.1276 12.5813 19.6538V20.0454C12.5813 20.5685 12.156 20.9967 11.6299 20.9967Z" fill="#E1E1E1"/>
<path d="M20.0485 12.5749H19.657C19.1338 12.5749 18.7056 12.1497 18.7056 11.6235C18.7056 11.0973 19.1308 10.6721 19.657 10.6721H20.0485C20.5747 10.6721 20.9999 11.0973 20.9999 11.6235C20.9999 12.1497 20.5747 12.5749 20.0485 12.5749Z" fill="#E1E1E1"/>
<path d="M3.60273 12.5749H3.21116C2.68499 12.5749 2.25977 12.1497 2.25977 11.6235C2.25977 11.0973 2.68499 10.6721 3.21116 10.6721H3.60273C4.12584 10.6721 4.55412 11.0973 4.55412 11.6235C4.55412 12.1497 4.1289 12.5749 3.60273 12.5749Z" fill="#E1E1E1"/>
<path d="M7.61624 5.62437C7.28892 5.62437 6.96771 5.45306 6.79333 5.15021L6.59755 4.81064C6.33446 4.35483 6.49048 3.77665 6.94629 3.51356C7.4021 3.25048 7.98028 3.40649 8.24337 3.86231L8.43915 4.20187C8.70224 4.65768 8.54622 5.23586 8.09041 5.49895C7.94051 5.5846 7.77838 5.62743 7.61624 5.62743V5.62437Z" fill="#E1E1E1"/>
<path d="M15.8394 19.8678C15.5121 19.8678 15.1908 19.6965 15.0165 19.3936L14.8207 19.054C14.5576 18.5982 14.7136 18.0201 15.1694 17.757C15.6252 17.4939 16.2034 17.6499 16.4665 18.1057L16.6623 18.4453C16.9254 18.9011 16.7694 19.4793 16.3136 19.7424C16.1637 19.828 16.0015 19.8708 15.8394 19.8708V19.8678Z" fill="#E1E1E1"/>
<path d="M18.5833 8.5614C18.256 8.5614 17.9348 8.39009 17.7604 8.08724C17.4973 7.63142 17.6533 7.05325 18.1091 6.79016L18.4487 6.59438C18.9045 6.33129 19.4827 6.48731 19.7458 6.94312C20.0089 7.39893 19.8528 7.97711 19.397 8.24019L19.0575 8.43598C18.9076 8.52164 18.7454 8.56446 18.5833 8.56446V8.5614Z" fill="#E1E1E1"/>
<path d="M4.34014 16.7872C4.01281 16.7872 3.6916 16.6159 3.51723 16.3131C3.25414 15.8573 3.41016 15.2791 3.86597 15.016L4.20553 14.8202C4.66135 14.5571 5.24258 14.7131 5.50261 15.1689C5.7657 15.6248 5.60968 16.2029 5.15387 16.466L4.8143 16.6618C4.66441 16.7475 4.50227 16.7903 4.34014 16.7903V16.7872Z" fill="#E1E1E1"/>
<path d="M4.67646 8.56115C4.51432 8.56115 4.35219 8.52138 4.20229 8.43267L3.86272 8.23688C3.40997 7.97379 3.25395 7.39256 3.51398 6.93981C3.77707 6.48399 4.3583 6.33104 4.81106 6.59106L5.15062 6.78685C5.60338 7.04993 5.75939 7.63117 5.49937 8.08392C5.32193 8.38984 5.00378 8.55809 4.67646 8.55809V8.56115Z" fill="#E1E1E1"/>
<path d="M18.9199 16.7874C18.7578 16.7874 18.5957 16.7476 18.4458 16.6589L18.1062 16.4631C17.6504 16.2 17.4944 15.6188 17.7575 15.166C18.0205 14.7102 18.5987 14.5542 19.0545 14.8173L19.3941 15.0131C19.8499 15.2761 20.0059 15.8574 19.7428 16.3101C19.5654 16.6161 19.2473 16.7843 18.9199 16.7843V16.7874Z" fill="#E1E1E1"/>
<path d="M15.6436 5.62442C15.4814 5.62442 15.3193 5.58465 15.1694 5.49594C14.7167 5.23285 14.5606 4.65161 14.8237 4.19886L15.0195 3.8593C15.2826 3.40348 15.8638 3.25053 16.3166 3.51361C16.7693 3.7767 16.9254 4.35794 16.6623 4.81069L16.4665 5.15025C16.2891 5.45617 15.9709 5.62442 15.6436 5.62442Z" fill="#E1E1E1"/>
<path d="M7.41763 19.868C7.2555 19.868 7.09337 19.8282 6.94347 19.7395C6.48766 19.4764 6.3347 18.8952 6.59472 18.4424L6.79051 18.1029C7.0536 17.6501 7.63177 17.491 8.08759 17.7541C8.5434 18.0172 8.69636 18.5984 8.43633 19.0512L8.24054 19.3908C8.06311 19.6967 7.74496 19.8649 7.41763 19.8649V19.868Z" fill="#E1E1E1"/>
</svg>
