<svg width="24" height="24" viewBox="0 0 24 24" fill="none" xmlns="http://www.w3.org/2000/svg">
<path d="M12.3701 19.537C16.3261 19.537 19.5331 16.33 19.5331 12.374C19.5331 8.41793 16.3261 5.21094 12.3701 5.21094C8.41402 5.21094 5.20703 8.41793 5.20703 12.374C5.20703 16.33 8.41402 19.537 12.3701 19.537Z" fill="#F5D15A"/>
<path d="M12.3703 4.34308C11.7734 4.34308 11.291 3.86068 11.291 3.26376V2.81955C11.291 2.22263 11.7734 1.74023 12.3703 1.74023C12.9672 1.74023 13.4496 2.22263 13.4496 2.81955V3.26376C13.4496 3.85721 12.9672 4.34308 12.3703 4.34308Z" fill="#F5D15A"/>
<path d="M12.3703 23.0032C11.7734 23.0032 11.291 22.5208 11.291 21.9239V21.4797C11.291 20.8863 11.7734 20.4004 12.3703 20.4004C12.9672 20.4004 13.4496 20.8828 13.4496 21.4797V21.9239C13.4496 22.5174 12.9672 23.0032 12.3703 23.0032Z" fill="#F5D15A"/>
<path d="M21.921 13.4496H21.4768C20.8833 13.4496 20.3975 12.9672 20.3975 12.3703C20.3975 11.7734 20.8799 11.291 21.4768 11.291H21.921C22.5179 11.291 23.0003 11.7734 23.0003 12.3703C23.0003 12.9672 22.5179 13.4496 21.921 13.4496Z" fill="#F5D15A"/>
<path d="M3.26376 13.4496H2.81955C2.22263 13.4496 1.74023 12.9672 1.74023 12.3703C1.74023 11.7734 2.22263 11.291 2.81955 11.291H3.26376C3.85721 11.291 4.34308 11.7734 4.34308 12.3703C4.34308 12.9672 3.86068 13.4496 3.26376 13.4496Z" fill="#F5D15A"/>
<path d="M7.81727 5.56404C7.44593 5.56404 7.08154 5.36969 6.88372 5.02612L6.66161 4.6409C6.36315 4.1238 6.54014 3.46788 7.05724 3.16942C7.57434 2.87096 8.23026 3.04796 8.52872 3.56505L8.75082 3.95028C9.04928 4.46737 8.87229 5.12329 8.35519 5.42175C8.18514 5.51892 8.00121 5.56751 7.81727 5.56751V5.56404Z" fill="#F5D15A"/>
<path d="M17.1454 21.7232C16.7741 21.7232 16.4097 21.5289 16.2118 21.1853L15.9897 20.8001C15.6913 20.283 15.8683 19.6271 16.3854 19.3286C16.9025 19.0301 17.5584 19.2071 17.8568 19.7242L18.0789 20.1095C18.3774 20.6266 18.2004 21.2825 17.6833 21.5809C17.5133 21.6781 17.3293 21.7267 17.1454 21.7267V21.7232Z" fill="#F5D15A"/>
<path d="M20.2582 8.89604C19.8869 8.89604 19.5225 8.7017 19.3247 8.35812C19.0262 7.84102 19.2032 7.18511 19.7203 6.88665L20.1055 6.66454C20.6226 6.36608 21.2786 6.54307 21.577 7.06017C21.8755 7.57727 21.6985 8.23319 21.1814 8.53165L20.7962 8.75375C20.6261 8.85093 20.4422 8.89951 20.2582 8.89951V8.89604Z" fill="#F5D15A"/>
<path d="M4.10005 18.2281C3.72871 18.2281 3.36431 18.0337 3.16649 17.6902C2.86803 17.1731 3.04503 16.5171 3.56213 16.2187L3.94735 15.9966C4.46444 15.6981 5.12383 15.8751 5.41882 16.3922C5.71728 16.9093 5.54028 17.5652 5.02319 17.8637L4.63797 18.0858C4.46791 18.183 4.28398 18.2315 4.10005 18.2315V18.2281Z" fill="#F5D15A"/>
<path d="M4.48199 8.89602C4.29806 8.89602 4.11412 8.8509 3.94407 8.75026L3.55885 8.52815C3.04522 8.22969 2.86823 7.5703 3.16322 7.05668C3.46168 6.53958 4.12107 6.36606 4.63469 6.66104L5.01991 6.88315C5.53354 7.18161 5.71053 7.841 5.41555 8.35463C5.21426 8.70167 4.85333 8.89255 4.48199 8.89255V8.89602Z" fill="#F5D15A"/>
<path d="M20.6405 18.2286C20.4566 18.2286 20.2727 18.1835 20.1026 18.0829L19.7174 17.8607C19.2003 17.5623 19.0233 16.9029 19.3218 16.3893C19.6202 15.8722 20.2761 15.6952 20.7932 15.9936L21.1785 16.2158C21.6956 16.5142 21.8726 17.1736 21.5741 17.6872C21.3728 18.0343 21.0119 18.2251 20.6405 18.2251V18.2286Z" fill="#F5D15A"/>
<path d="M16.9238 5.56492C16.7399 5.56492 16.556 5.51981 16.3859 5.41916C15.8723 5.1207 15.6953 4.46132 15.9938 3.94769L16.2159 3.56247C16.5143 3.04537 17.1737 2.87185 17.6873 3.17031C18.201 3.46877 18.378 4.12815 18.0795 4.64178L17.8574 5.027C17.6561 5.37405 17.2952 5.56492 16.9238 5.56492Z" fill="#F5D15A"/>
<path d="M7.59167 21.723C7.40773 21.723 7.2238 21.6779 7.05375 21.5772C6.53665 21.2788 6.36313 20.6194 6.65812 20.1058L6.88022 19.7205C7.17868 19.2069 7.8346 19.0265 8.3517 19.3249C8.86879 19.6234 9.04232 20.2828 8.74733 20.7964L8.52522 21.1816C8.32393 21.5287 7.96301 21.7195 7.59167 21.7195V21.723Z" fill="#F5D15A"/>
</svg>
