<svg width="24" height="24" viewBox="0 0 24 24" fill="none" xmlns="http://www.w3.org/2000/svg">
<path d="M10.3102 13.9997C12.888 13.9997 14.9778 11.91 14.9778 9.33212C14.9778 6.75428 12.888 4.66452 10.3102 4.66452C7.73232 4.66452 5.64257 6.75428 5.64257 9.33212C5.64257 11.91 7.73232 13.9997 10.3102 13.9997ZM10.3102 13.9997C6.46273 13.9997 3.30673 16.9626 3 20.73M10.3102 13.9997C14.1576 13.9997 17.2428 16.8959 17.6096 20.6055M14.5003 4C18.1677 4.38008 20.0058 8.67204 18.2699 11.7282C17.7854 12.5817 16.9341 13.2752 15.9272 13.4663M15.945 13.4908C19.459 13.4908 21.4594 16.5536 21.8461 20.4722" stroke="#5B5B5B" stroke-linecap="round" stroke-linejoin="round"/>
</svg>
